opsz144_wght100_wdth125.ufo
<glyph name="zero" format="2">
	<unicode hex="0030"/>
	<advance width="1165"/>
	<outline>
		<contour>
			<point x="89.97265625" y="889.0051269531" type="qcurve" smooth="yes"/>
			<point x="154.8099975586" y="1187.2729492188"/>
			<point x="508.4532470703" y="1573.6170043945"/>
			<point x="743.1044921875" y="1533.0102539062" type="qcurve" smooth="yes"/>
			<point x="930.3202514648" y="1490.403503418"/>
			<point x="1126.4509887695" y="951.6682739258"/>
			<point x="1065.512878418" y="656.7698364258" type="qcurve" smooth="yes"/>
			<point x="1006.5965576172" y="360.9937133789"/>
			<point x="648.5678710938" y="-54.6067504883"/>
			<point x="434.5069580078" y="-17" type="qcurve" smooth="yes"/>
			<point x="218.5018920898" y="25.6067504883"/>
			<point x="22.0343017578" y="567.8355712891"/>
		</contour>
		<contour>
			<point x="271.9742431641" y="879.0051269531" type="qcurve" smooth="yes"/>
			<point x="199.9477539062" y="551.9000244141"/>
			<point x="290.2716064453" y="133.001953125"/>
			<point x="455.8341064453" y="96.001953125" type="qcurve" smooth="yes"/>
			<point x="625.8966064453" y="58.001953125"/>
			<point x="837.1717529297" y="398.9212036133"/>
			<point x="894.1180419922" y="695.0051269531" type="qcurve" smooth="yes"/>
			<point x="953.1450805664" y="997.7113037109"/>
			<point x="866.6456298828" y="1376.7004394531"/>
			<point x="703.2706298828" y="1415.7004394531" type="qcurve" smooth="yes"/>
			<point x="548.6456298828" y="1451.7004394531"/>
			<point x="334.6973876953" y="1167.089050293"/>
		</contour>
	</outline>
</glyph>
<glyph name="one" format="2">
	<unicode hex="0031"/>
	<advance width="484"/>
	<outline>
		<contour>
			<point x="-52.998046875" y="-14.5383300781" type="line"/>
			<point x="-37.5513305664" y="22.7598876953"/>
			<point x="-0.7979125977" y="106.2836914062"/>
			<point x="26.2223510742" y="269.8713378906" type="qcurve" smooth="yes"/>
			<point x="184.4989624023" y="1048.5614013672" type="line"/>
			<point x="236.6903686523" y="1340.1096801758" type="line"/>
			<point x="126.2821044922" y="1251.7055664062" type="line"/>
			<point x="85.0506591797" y="1358.0920410156" type="line"/>
			<point x="364.0299072266" y="1540.9291992188" type="line"/>
			<point x="416.4923095703" y="1506.4670410156" type="line"/>
			<point x="418.4535522461" y="1482.8848876953"/>
			<point x="404.0544433594" y="1365.9987182617"/>
			<point x="393.8912353516" y="1320.8059692383" type="qcurve" smooth="yes"/>
			<point x="269.2225341797" y="718.7822265625" type="line"/>
			<point x="170.0248413086" y="116.7565307617" type="line"/>
			<point x="10.4645996094" y="-44.3850097656" type="line"/>
		</contour>
	</outline>
</glyph>
<glyph name="two" format="2">
	<unicode hex="0032"/>
	<advance width="792"/>
	<outline>
		<contour>
			<point x="-126.8577270508" y="3.2431640625" type="qcurve"/>
			<point x="-163.8571166992" y="52.7315673828" type="line"/>
			<point x="-31.2017211914" y="187.8743896484" type="line" smooth="yes"/>
			<point x="113.4340209961" y="432.501159668"/>
			<point x="536.0628662109" y="950.26171875"/>
			<point x="561.1640014648" y="1177.4094238281" type="qcurve" smooth="yes"/>
			<point x="577.2553100586" y="1255.4530029297"/>
			<point x="492.3124389648" y="1358.2801513672"/>
			<point x="363.9334106445" y="1357.2801513672" type="qcurve" smooth="yes"/>
			<point x="328.7985229492" y="1356.2801513672"/>
			<point x="151.7289428711" y="1325.7659912109"/>
			<point x="67.9258422852" y="1225.7403564453" type="qcurve"/>
			<point x="-10.739074707" y="1291.7678222656" type="line"/>
			<point x="68.879699707" y="1382.3201904297"/>
			<point x="331.3854370117" y="1531.4040527344"/>
			<point x="452.7640991211" y="1531.4040527344" type="qcurve" smooth="yes"/>
			<point x="591.0067749023" y="1531.4040527344"/>
			<point x="779.0143432617" y="1361.9272460938"/>
			<point x="754.2553100586" y="1202.9129638672" type="qcurve" smooth="yes"/>
			<point x="713.2748413086" y="963.6950683594"/>
			<point x="326.7841796875" y="444.4886474609"/>
			<point x="121.9808959961" y="253.3657836914" type="qcurve"/>
			<point x="116.9862060547" y="263.3025512695" type="line"/>
			<point x="84.998046875" y="241.9020385742"/>
			<point x="2.4566040039" y="255.4486694336"/>
			<point x="-29.8577880859" y="264.5406494141" type="qcurve"/>
			<point x="95.3367919922" y="239.0023803711"/>
			<point x="391.3798217773" y="192.2524414062"/>
			<point x="510.0690917969" y="165.9792480469" type="qcurve"/>
			<point x="655.4169921875" y="383.7464599609" type="line"/>
			<point x="725.3614501953" y="365.7266845703" type="line"/>
			<point x="572.7383422852" y="-20.7670898438" type="line"/>
			<point x="384.951965332" y="42.5369873047"/>
			<point x="95.0645141602" y="109.305847168"/>
			<point x="-18.778137207" y="110.6788330078" type="qcurve" smooth="yes"/>
			<point x="-114.6708984375" y="112.0619506836"/>
			<point x="-87.1510620117" y="53.4660644531"/>
		</contour>
	</outline>
</glyph>
<glyph name="three" format="2">
	<unicode hex="0033"/>
	<advance width="861"/>
	<outline>
		<contour>
			<point x="-88.7092285156" y="196.9948730469" type="qcurve"/>
			<point x="-87.85546875" y="235.2008666992"/>
			<point x="-21.5131835938" y="320.7786254883"/>
			<point x="58.2358398438" y="325.1043701172" type="qcurve"/>
			<point x="78.4495849609" y="322.2334594727" type="line"/>
			<point x="72.6630859375" y="287.182800293"/>
			<point x="72.5602416992" y="246.3076782227"/>
			<point x="74.4833374023" y="220.2367553711" type="qcurve" smooth="yes"/>
			<point x="74.7758178711" y="139.7921142578"/>
			<point x="178.4626464844" y="66.0988769531"/>
			<point x="294.5311279297" y="66.0988769531" type="qcurve" smooth="yes"/>
			<point x="440.444519043" y="66.0988769531"/>
			<point x="606.2989501953" y="309.2049560547"/>
			<point x="608.2534790039" y="464.5180053711" type="qcurve" smooth="yes"/>
			<point x="612.2752685547" y="618.5166015625"/>
			<point x="453.3166503906" y="782.8456420898"/>
			<point x="343.6948852539" y="781.1052246094" type="qcurve" smooth="yes"/>
			<point x="230.56640625" y="781.4462890625" type="line"/>
			<point x="240.0974121094" y="875.9195556641" type="line"/>
			<point x="312.8759765625" y="873.1604003906" type="line" smooth="yes"/>
			<point x="461.7451171875" y="863.9598388672"/>
			<point x="669.0423583984" y="1073.5198974609"/>
			<point x="671.6036376953" y="1218.9634399414" type="qcurve" smooth="yes"/>
			<point x="673.3111572266" y="1299.352722168"/>
			<point x="591.0999145508" y="1384.0247802734"/>
			<point x="480.0886230469" y="1384.0247802734" type="qcurve" smooth="yes"/>
			<point x="390.3793334961" y="1384.0247802734"/>
			<point x="247.3806152344" y="1295.0068359375"/>
			<point x="200.6252441406" y="1212.2514648438" type="qcurve"/>
			<point x="126.7603759766" y="1276.458984375" type="line"/>
			<point x="190.1290283203" y="1388.5655517578"/>
			<point x="379.1209716797" y="1534.7487182617"/>
			<point x="522.9809570312" y="1534.7487182617" type="qcurve" smooth="yes"/>
			<point x="680.1103515625" y="1534.7487182617"/>
			<point x="851.9649658203" y="1387.9760131836"/>
			<point x="849.4036865234" y="1248.7831420898" type="qcurve" smooth="yes"/>
			<point x="847.6961669922" y="1117.063659668"/>
			<point x="661.9946289062" y="883.6486816406"/>
			<point x="505.9619750977" y="842.2528076172" type="qcurve"/>
			<point x="504.9619750977" y="839.2122802734" type="line"/>
			<point x="572.063293457" y="829.7055053711"/>
			<point x="790.9290771484" y="650.7330932617"/>
			<point x="788.3677978516" y="474.3806152344" type="qcurve" smooth="yes"/>
			<point x="785.8065185547" y="284.0667724609"/>
			<point x="491.4520874023" y="-36"/>
			<point x="247.8850708008" y="-36" type="qcurve" smooth="yes"/>
			<point x="82.8071289062" y="-36"/>
			<point x="-89.5629882812" y="95.7854614258"/>
		</contour>
	</outline>
</glyph>
<glyph name="four" format="2">
	<unicode hex="0034"/>
	<advance width="775"/>
	<outline>
		<contour>
			<point x="-61.2078857422" y="445.5974121094" type="line"/>
			<point x="13" y="539" type="line"/>
			<point x="773.8894042969" y="1548.8481445312" type="line"/>
			<point x="824.3619384766" y="1523.6118774414" type="line"/>
			<point x="835.6091918945" y="1513.0051269531" type="line"/>
			<point x="670.2440185547" y="516.0598144531" type="line"/>
			<point x="666.2440185547" y="489.0598144531" type="line"/>
			<point x="604.2496948242" y="121.1617431641" type="line"/>
			<point x="598.5829467773" y="41.2810058594" type="line"/>
			<point x="418.637878418" y="-24.9890136719" type="line"/>
			<point x="412.0311279297" y="-15.7755126953" type="line"/>
			<point x="505.7031860352" y="491.0598144531" type="line"/>
			<point x="506.7031860352" y="516.0598144531" type="line"/>
			<point x="618.1971435547" y="1190.7880249023" type="line"/>
			<point x="168" y="559" type="line"/>
			<point x="129.2037353516" y="547.1374511719" type="line"/>
			<point x="606.7811279297" y="558.6760253906" type="line"/>
			<point x="756.8912353516" y="567.7529296875" type="line"/>
			<point x="733.0447998047" y="444.5974121094" type="line"/>
			<point x="584.9346923828" y="443.0588378906" type="line"/>
		</contour>
	</outline>
</glyph>
<glyph name="five" format="2">
	<unicode hex="0035"/>
	<advance width="740"/>
	<outline>
		<contour>
			<point x="-140.0364990234" y="209.1448974609" type="qcurve" smooth="yes"/>
			<point x="-142.0364990234" y="277.0243530273"/>
			<point x="-93.4497680664" y="325.4415893555"/>
			<point x="-27.4967041016" y="335.1190185547" type="qcurve"/>
			<point x="-12.4964599609" y="331.6514892578" type="line"/>
			<point x="-4.6424560547" y="210.2175292969" type="line" smooth="yes"/>
			<point x="52.1448364258" y="180.8536987305"/>
			<point x="117.8541870117" y="78.5200195312"/>
			<point x="252.9393310547" y="78.5200195312" type="qcurve" smooth="yes"/>
			<point x="420.1267700195" y="78.5200195312"/>
			<point x="586.5043334961" y="313.514465332"/>
			<point x="584.5888061523" y="554.1945800781" type="qcurve" smooth="yes"/>
			<point x="582.6732788086" y="704.6187744141"/>
			<point x="389.2337036133" y="862.2056884766"/>
			<point x="74.2058105469" y="828.4139404297" type="qcurve" smooth="yes"/>
			<point x="-17.0380859375" y="792.3415527344" type="line"/>
			<point x="-47.9860839844" y="856.6342773438" type="line"/>
			<point x="79.522644043" y="1458.1807250977" type="line"/>
			<point x="124.8732910156" y="1509.9798583984" type="line"/>
			<point x="778.4206542969" y="1509.9798583984" type="line"/>
			<point x="747.8248901367" y="1340.4390258789" type="line"/>
			<point x="171.8685913086" y="1340.4390258789" type="line"/>
			<point x="166.0145874023" y="1331.1208496094" type="line"/>
			<point x="148.8158569336" y="1226.5592041016"/>
			<point x="98.4838256836" y="962.2803955078"/>
			<point x="59.9302368164" y="899.3930053711" type="qcurve"/>
			<point x="196.5081176758" y="952.0771484375" type="line"/>
			<point x="461.0049438477" y="1010.7291259766"/>
			<point x="771.2191772461" y="791.6493530273"/>
			<point x="770.3654174805" y="554.9007568359" type="qcurve" smooth="yes"/>
			<point x="768.6578979492" y="275.8239746094"/>
			<point x="448.6337280273" y="-27"/>
			<point x="231.2772216797" y="-27" type="qcurve" smooth="yes"/>
			<point x="36.526550293" y="-27"/>
			<point x="-137.0364990234" y="109.6585693359"/>
		</contour>
	</outline>
</glyph>
<glyph name="six" format="2">
	<unicode hex="0036"/>
	<advance width="985"/>
	<outline>
		<contour>
			<point x="32" y="507.2624511719" type="qcurve" smooth="yes"/>
			<point x="40.5727539062" y="844.4610595703"/>
			<point x="557.9707641602" y="1475.5823364258"/>
			<point x="818.5395507812" y="1568.9412231445" type="qcurve"/>
			<point x="871.3062744141" y="1475.5391845703" type="line"/>
			<point x="674.4703369141" y="1410.0848999023"/>
			<point x="215.9065551758" y="868.3454589844"/>
			<point x="201.8907470703" y="483.1080932617" type="qcurve" smooth="yes"/>
			<point x="190.6525878906" y="254.1539306641"/>
			<point x="346.9633178711" y="92.9816894531"/>
			<point x="476.0407714844" y="93.5884399414" type="qcurve" smooth="yes"/>
			<point x="627.2987670898" y="93.5884399414"/>
			<point x="815.173034668" y="354.7573852539"/>
			<point x="814.0276489258" y="604.6072387695" type="qcurve" smooth="yes"/>
			<point x="819.7161865234" y="638.0390014648"/>
			<point x="739.6439208984" y="787.7693481445"/>
			<point x="627.6734619141" y="787.7693481445" type="qcurve" smooth="yes"/>
			<point x="645.7222900391" y="787.7693481445"/>
			<point x="579.0944213867" y="757.9208984375"/>
			<point x="566.3510742188" y="752.4665527344" type="qcurve"/>
			<point x="541.5381469727" y="819.5930175781" type="line"/>
			<point x="567.7573242188" y="839.7373046875"/>
			<point x="745.9094848633" y="938.7814331055"/>
			<point x="713.2075805664" y="938.7814331055" type="qcurve" smooth="yes"/>
			<point x="860.3457641602" y="938.7814331055"/>
			<point x="1004.7467651367" y="711.9038696289"/>
			<point x="1005.5335083008" y="579.782409668" type="qcurve" smooth="yes"/>
			<point x="1006.6799926758" y="321.8502807617"/>
			<point x="648.061340332" y="-17.3932495117"/>
			<point x="430.8572998047" y="-17.3932495117" type="qcurve" smooth="yes"/>
			<point x="288.1729736328" y="-18"/>
			<point x="25.0002441406" y="239.0003662109"/>
		</contour>
	</outline>
</glyph>
<glyph name="seven" format="2">
	<unicode hex="0037"/>
	<advance width="829"/>
	<outline>
		<contour>
			<point x="83.303527832" y="1166.7798461914" type="line"/>
			<point x="196.8410644531" y="1510.0001220703" type="line"/>
			<point x="961.9951171875" y="1510.0001220703" type="line"/>
			<point x="977.8110351562" y="1466.3841552734" type="line"/>
			<point x="765.900390625" y="1089.1895141602"/>
			<point x="350.1293334961" y="377.305847168"/>
			<point x="340.7440185547" y="104.8995361328" type="qcurve"/>
			<point x="93.7086791992" y="-21" type="line"/>
			<point x="59.2251586914" y="26.8657836914" type="line"/>
			<point x="203.0001831055" y="372.4508056641"/>
			<point x="702.0104370117" y="1131.8450927734"/>
			<point x="792.5190429688" y="1338.313293457" type="qcurve"/>
			<point x="797.6416015625" y="1341.313293457" type="line"/>
			<point x="294.7003173828" y="1341.313293457" type="line"/>
			<point x="186.3005981445" y="1167.3041381836" type="line"/>
		</contour>
	</outline>
</glyph>
<glyph name="eight" format="2">
	<unicode hex="0038"/>
	<advance width="860"/>
	<outline>
		<contour>
			<point x="340.9440917969" y="819.0370483398" type="qcurve"/>
			<point x="408.0648193359" y="755.4996948242" type="line"/>
			<point x="297.242980957" y="701.0401611328"/>
			<point x="74.1741943359" y="444.2170410156"/>
			<point x="73.3103027344" y="327.5769042969" type="qcurve" smooth="yes"/>
			<point x="73.3001708984" y="212.0284423828"/>
			<point x="180.7364501953" y="81.1354980469"/>
			<point x="304.5694580078" y="81.1354980469" type="qcurve" smooth="yes"/>
			<point x="447.2528076172" y="81.1354980469"/>
			<point x="606.8576049805" y="270.0310058594"/>
			<point x="607.721496582" y="427.0247802734" type="qcurve" smooth="yes"/>
			<point x="608.5853881836" y="536.5596923828"/>
			<point x="441.9557495117" y="706.8247070312"/>
			<point x="321.3248291016" y="783.6578369141" type="qcurve" smooth="yes"/>
			<point x="185.2251586914" y="869.2839355469"/>
			<point x="183.7233886719" y="1026.5747070312"/>
			<point x="185.5771484375" y="1154.6444091797" type="qcurve" smooth="yes"/>
			<point x="188.2846679688" y="1282.2778320312"/>
			<point x="389.1813964844" y="1521.9697265625"/>
			<point x="596.7319335938" y="1521.9697265625" type="qcurve" smooth="yes"/>
			<point x="697.6904296875" y="1521.1159667969"/>
			<point x="850.7401123047" y="1385.4168701172"/>
			<point x="850.0325927734" y="1279.7785644531" type="qcurve" smooth="yes"/>
			<point x="850.1990966797" y="1163.3839111328"/>
			<point x="754.4704589844" y="948.7985229492"/>
			<point x="548.0081787109" y="834.1559448242" type="qcurve"/>
			<point x="474.9240722656" y="894.4829101562" type="line"/>
			<point x="645.9317626953" y="964.7810058594"/>
			<point x="665.3706054688" y="1185.1942138672"/>
			<point x="664.3706054688" y="1247.3951416016" type="qcurve" smooth="yes"/>
			<point x="664.2344970703" y="1311.2155761719"/>
			<point x="609.3548583984" y="1411.9636230469"/>
			<point x="565.4118652344" y="1411.9636230469" type="qcurve" smooth="yes"/>
			<point x="455.58203125" y="1411.9636230469"/>
			<point x="345.0619506836" y="1258.4193725586"/>
			<point x="344.0619506836" y="1164.1416015625" type="qcurve" smooth="yes"/>
			<point x="342.208190918" y="1091.568359375"/>
			<point x="347.089050293" y="1004.4946899414"/>
			<point x="521.932800293" y="883.6856079102" type="qcurve" smooth="yes"/>
			<point x="651.339050293" y="788.1384887695"/>
			<point x="765.3511962891" y="592.1245117188"/>
			<point x="764.4771728516" y="436.0693359375" type="qcurve" smooth="yes"/>
			<point x="762.7493896484" y="239.8704223633"/>
			<point x="507.201171875" y="-24"/>
			<point x="302.1171875" y="-24" type="qcurve" smooth="yes"/>
			<point x="94.9613037109" y="-24"/>
			<point x="-138.4616699219" y="156.1854248047"/>
			<point x="-137.5977783203" y="313.1682128906" type="qcurve" smooth="yes"/>
			<point x="-135.8801269531" y="454.0782470703"/>
			<point x="142.2612304688" y="724.7817382812"/>
		</contour>
	</outline>
</glyph>
<glyph name="nine" format="2">
	<unicode hex="0039"/>
	<advance width="1055"/>
	<outline>
		<contour>
			<point x="135.8252563477" y="-60.7327270508" type="qcurve"/>
			<point x="86.5863037109" y="32.6693115234" type="line"/>
			<point x="355.250793457" y="98.1235961914"/>
			<point x="844.3627319336" y="648.1832885742"/>
			<point x="851.1456298828" y="1024.1896972656" type="qcurve" smooth="yes"/>
			<point x="859.1942138672" y="1243.7221069336"/>
			<point x="725.2542724609" y="1417.184387207"/>
			<point x="606.1350097656" y="1417.184387207" type="qcurve" smooth="yes"/>
			<point x="442.9243774414" y="1417.184387207"/>
			<point x="246.2623901367" y="1143.4654541016"/>
			<point x="233.6489868164" y="903.2973022461" type="qcurve" smooth="yes"/>
			<point x="224.49609375" y="869.8655395508"/>
			<point x="269.7458496094" y="720.2365112305"/>
			<point x="415.3961791992" y="720.2365112305" type="qcurve" smooth="yes"/>
			<point x="396.4935913086" y="720.2365112305"/>
			<point x="463.7282104492" y="749.4782104492"/>
			<point x="476.2245483398" y="754.9325561523" type="qcurve"/>
			<point x="499.2172241211" y="687.8060913086" type="line"/>
			<point x="474.098815918" y="667.6618041992"/>
			<point x="294.7331542969" y="569.2244262695"/>
			<point x="326.5812988281" y="569.2244262695" type="qcurve" smooth="yes"/>
			<point x="190.296875" y="568.3706665039"/>
			<point x="34.2893676758" y="796.0006713867"/>
			<point x="37.996887207" y="928.1221313477" type="qcurve" smooth="yes"/>
			<point x="40.8506469727" y="1179.9563598633"/>
			<point x="412.6040649414" y="1528.1660766602"/>
			<point x="628.9543457031" y="1528.1660766602" type="qcurve" smooth="yes"/>
			<point x="750.0950317383" y="1528.1660766602"/>
			<point x="1028.7438964844" y="1251.5108642578"/>
			<point x="1016.8901367188" y="1000.0353393555" type="qcurve" smooth="yes"/>
			<point x="1001.0363769531" y="662.836730957"/>
			<point x="449.992980957" y="34.1994018555"/>
		</contour>
	</outline>
</glyph>
<glyph name="A" format="2">
	<unicode hex="0041"/>
	<advance width="1316"/>
	<outline>
		<contour>
			<point x="-234.6085205078" y="0" type="line"/>
			<point x="-218.4087524414" y="99.9987792969" type="line"/>
			<point x="-1.4080200195" y="130.9987792969" type="line"/>
			<point x="235.7645263672" y="588.0184326172" type="line"/>
			<point x="805.3729858398" y="1506" type="line"/>
			<point x="946.7164916992" y="1500" type="line"/>
			<point x="1023.9334106445" y="562" type="line"/>
			<point x="1062.1221923828" y="117.9987792969" type="line"/>
			<point x="1250.1229248047" y="97.9987792969" type="line"/>
			<point x="1233.9231567383" y="0" type="line"/>
			<point x="670.5850219727" y="0" type="line"/>
			<point x="687.7847900391" y="97.9987792969" type="line"/>
			<point x="884.7855224609" y="120.9987792969" type="line"/>
			<point x="867.564453125" y="548" type="line"/>
			<point x="794.6655273438" y="1260.3759765625" type="line"/>
			<point x="793.2911376953" y="1287.2929077148" type="line"/>
			<point x="792.2911376953" y="1287.2929077148" type="line"/>
			<point x="785.1237182617" y="1249.2620849609" type="line"/>
			<point x="317.1978759766" y="557.7778320312" type="line"/>
			<point x="128.9802856445" y="131.9987792969" type="line"/>
			<point x="333.9810180664" y="97.9987792969" type="line"/>
			<point x="319.78125" y="0" type="line"/>
		</contour>
		<contour>
			<point x="250.0371704102" y="521.4261474609" type="line"/>
			<point x="288.190612793" y="617.888671875" type="line"/>
			<point x="642.7352905273" y="605.7775878906" type="line"/>
			<point x="617.4020385742" y="524.9075927734" type="line"/>
		</contour>
		<contour>
			<point x="646.4636230469" y="605.7775878906" type="line"/>
			<point x="977.7513427734" y="616.8331298828" type="line"/>
			<point x="963.2619628906" y="525.5372314453" type="line"/>
			<point x="621.1303710938" y="524.9075927734" type="line"/>
		</contour>
	</outline>
	<anchor name="bottom" x="523" y="0"/>
	<anchor name="ogonek" x="1098" y="0"/>
	<anchor name="top" x="954" y="1500"/>
	<anchor name="tonos" x="613" y="1500"/>
</glyph>
<glyph name="C" format="2">
	<unicode hex="0043"/>
	<advance width="1399"/>
	<outline>
		<contour>
			<point x="101.7939138881" y="775" type="qcurve" smooth="yes"/>
			<point x="192.1578054897" y="1148"/>
			<point x="724.1092621146" y="1550.5593261719"/>
			<point x="996.9157207857" y="1536.5711669922" type="qcurve" smooth="yes"/>
			<point x="1136.5078216849" y="1532.9229736328"/>
			<point x="1289.1787811576" y="1432.7517089844"/>
			<point x="1335.7903534232" y="1384.8433837891" type="qcurve"/>
			<point x="1360.4906097708" y="1348.5711669922" type="line"/>
			<point x="1390.8574322115" y="1339.5711669922" type="line"/>
			<point x="1342.9531963717" y="1113.2750244141" type="line"/>
			<point x="1237.8721416842" y="1113.2750244141" type="line"/>
			<point x="1215.1347759615" y="1152.6276855469" type="line"/>
			<point x="1196.1646831881" y="1276.0428466797"/>
			<point x="1125.3839214693" y="1422.0718383789"/>
			<point x="973.3328960787" y="1425.1273193359" type="qcurve" smooth="yes"/>
			<point x="714.9835308443" y="1441.3681030273"/>
			<point x="374.8095388881" y="1132"/>
			<point x="289.1307669154" y="774" type="qcurve" smooth="yes"/>
			<point x="210.4640188686" y="454"/>
			<point x="447.6774576584" y="109.2357788086"/>
			<point x="646.0123575607" y="81.4467163086" type="qcurve" smooth="yes"/>
			<point x="955.7869547287" y="40.3538208008"/>
			<point x="1202.4813528529" y="269.5025024414"/>
			<point x="1213.8391409389" y="403.9470825195" type="qcurve"/>
			<point x="1248.2279348842" y="399.5211791992" type="line"/>
			<point x="1273.9870901576" y="343.1326293945" type="line"/>
			<point x="1235.932951974" y="173.9103393555"/>
			<point x="903.9745157638" y="-61.3910522461"/>
			<point x="619.745818185" y="-27.5712280273" type="qcurve" smooth="yes"/>
			<point x="378.0957315841" y="7.1875"/>
			<point x="18.1272268764" y="435"/>
		</contour>
	</outline>
	<anchor name="bottom" x="596" y="0"/>
	<anchor name="top" x="906" y="1500"/>
</glyph>
<glyph name="F" format="2">
	<unicode hex="0046"/>
	<advance width="1161"/>
	<outline>
		<contour>
			<point x="-62.6088256836" y="0" type="line"/>
			<point x="-44.4090576172" y="100.9987792969" type="line"/>
			<point x="126.3916625977" y="124.9987792969" type="line"/>
			<point x="286.3919067383" y="799" type="line"/>
			<point x="392.792175293" y="1364.8013916016" type="line"/>
			<point x="220.9913330078" y="1388.8013916016" type="line"/>
			<point x="234.3911743164" y="1500" type="line"/>
			<point x="1251.9144287109" y="1500" type="line"/>
			<point x="1207.5352783203" y="1142.7709960938" type="line"/>
			<point x="1117.1343994141" y="1142.7709960938" type="line"/>
			<point x="1093.4951171875" y="1402.7967529297" type="line"/>
			<point x="609.0432739258" y="1402.7967529297" type="line"/>
			<point x="569.0432739258" y="1382.7967529297" type="line"/>
			<point x="447.061706543" y="801" type="line"/>
			<point x="300.0614624023" y="121.9987792969" type="line"/>
			<point x="513.2622070312" y="99.9987792969" type="line"/>
			<point x="495.0624389648" y="0" type="line"/>
		</contour>
		<contour>
			<point x="344.2268676758" y="689.4816894531" type="line"/>
			<point x="362.8934326172" y="779.5738525391" type="line"/>
			<point x="856.4504394531" y="788.6849365234" type="line"/>
			<point x="938.9096679688" y="949.9810791016" type="line"/>
			<point x="1031.9106445312" y="949.9810791016" type="line"/>
			<point x="930.8911743164" y="475.7041015625" type="line"/>
			<point x="838.8901977539" y="475.7041015625" type="line"/>
			<point x="835.3764648438" y="681.0002441406" type="line"/>
		</contour>
	</outline>
	<anchor name="bottom" x="578" y="0"/>
	<anchor name="top" x="622" y="1500"/>
</glyph>
<glyph name="G" format="2">
	<unicode hex="0047"/>
	<advance width="1642"/>
	<outline>
		<contour>
			<point x="100.2167926657" y="836" type="qcurve" smooth="yes"/>
			<point x="197.2167926657" y="1237"/>
			<point x="851.0263107497" y="1567.5335083008"/>
			<point x="1021.657658406" y="1519.714050293" type="qcurve" smooth="yes"/>
			<point x="1181.788517781" y="1489.714050293"/>
			<point x="1383.1754196364" y="1392.3701782227"/>
			<point x="1410.5324142653" y="1362.2855834961" type="qcurve" smooth="yes"/>
			<point x="1419.663945027" y="1343.2856445312" type="line"/>
			<point x="1441.4531295974" y="1327" type="line"/>
			<point x="1366.9088180739" y="956.8896484375" type="line"/>
			<point x="1264.8277633864" y="956.8896484375" type="line"/>
			<point x="1262.0773971755" y="1067.9322509766" type="line"/>
			<point x="1276.5770309645" y="1229.8098144531"/>
			<point x="1150.6695602614" y="1375.8197631836"/>
			<point x="1034.1422165114" y="1414.6405639648" type="qcurve" smooth="yes"/>
			<point x="857.9387253005" y="1487.8302612305"/>
			<point x="390.8871417868" y="1221"/>
			<point x="286.8870807516" y="818" type="qcurve" smooth="yes"/>
			<point x="183.250911318" y="420.6851806641"/>
			<point x="452.3378952224" y="102.3276367188"/>
			<point x="629.2911422927" y="65.9017333984" type="qcurve" smooth="yes"/>
			<point x="724.545170613" y="43.8461914062"/>
			<point x="1095.9747360427" y="139.5364990234"/>
			<point x="1141.2943161208" y="202.2956542969" type="qcurve"/>
			<point x="1222.7946823317" y="539.4012451172" type="line"/>
			<point x="1007.1938522536" y="565.2012329102" type="line"/>
			<point x="1023.7937057692" y="665" type="line"/>
			<point x="1610.1316574294" y="665" type="line"/>
			<point x="1590.9318283278" y="564.4012451172" type="line"/>
			<point x="1402.1311691481" y="539.4012451172" type="line"/>
			<point x="1309.1312912185" y="188.0017089844" type="line"/>
			<point x="1238.001408406" y="136.0008544922" type="line"/>
			<point x="1161.5220382888" y="47.6669311523"/>
			<point x="744.3250168044" y="-59.8569335938"/>
			<point x="595.3875778396" y="-38.8569335938" type="qcurve" smooth="yes"/>
			<point x="362.0411422927" y="-5.8569335938"/>
			<point x="2.2167926657" y="429"/>
		</contour>
	</outline>
	<anchor name="bottom" x="667" y="0"/>
	<anchor name="top" x="907" y="1492"/>
</glyph>
<glyph name="H" format="2">
	<unicode hex="0048"/>
	<advance width="1608"/>
	<outline>
		<contour>
			<point x="-69.1539306641" y="0" type="line"/>
			<point x="-48.9541625977" y="98.9987792969" type="line"/>
			<point x="140.0465698242" y="124.9987792969" type="line"/>
			<point x="291.8468017578" y="794" type="line"/>
			<point x="406.6470947266" y="1351.0015258789" type="line"/>
			<point x="232.2462158203" y="1389.0014038086" type="line"/>
			<point x="244.8460693359" y="1500" type="line"/>
			<point x="793.5172729492" y="1500" type="line"/>
			<point x="771.9175415039" y="1389.0014038086" type="line"/>
			<point x="574.3168334961" y="1351.0015258789" type="line"/>
			<point x="445.5165405273" y="768" type="line"/>
			<point x="307.7163085938" y="124.9987792969" type="line"/>
			<point x="494.7171630859" y="98.9987792969" type="line"/>
			<point x="483.5172729492" y="0" type="line"/>
		</contour>
		<contour>
			<point x="357.3483886719" y="710.4816894531" type="line"/>
			<point x="381.0704956055" y="827.8515625" type="line"/>
			<point x="823.9078979492" y="822.1108398438" type="line"/>
			<point x="1255.3925170898" y="827.8515625" type="line"/>
			<point x="1231.0037231445" y="710.4816894531" type="line"/>
			<point x="801.889465332" y="713.2224121094" type="line"/>
		</contour>
		<contour>
			<point x="820.5014038086" y="0" type="line"/>
			<point x="839.701171875" y="98.9987792969" type="line"/>
			<point x="1027.7019042969" y="124.9987792969" type="line"/>
			<point x="1171.5021362305" y="764" type="line"/>
			<point x="1284.3024291992" y="1351.0015258789" type="line"/>
			<point x="1146.901550293" y="1387.0014038086" type="line"/>
			<point x="1158.5014038086" y="1500" type="line"/>
			<point x="1682.1726074219" y="1500" type="line"/>
			<point x="1661.5728759766" y="1387.0014038086" type="line"/>
			<point x="1453.9721679688" y="1351.0015258789" type="line"/>
			<point x="1328.5052490234" y="748" type="line"/>
			<point x="1193.7050170898" y="124.9987792969" type="line"/>
			<point x="1387.705871582" y="98.9987792969" type="line"/>
			<point x="1375.5059814453" y="0" type="line"/>
		</contour>
	</outline>
	<anchor name="bottom" x="607" y="0"/>
	<anchor name="center" x="820" y="1079"/>
	<anchor name="top" x="950" y="1500"/>
	<anchor name="tonos" x="81" y="1500"/>
	<anchor name="cy_descender" x="1399" y="100"/>
</glyph>
<glyph name="J" format="2">
	<unicode hex="004A"/>
	<advance width="655"/>
	<outline>
		<contour>
			<point x="70.8743896484" y="-300.2253417969" type="qcurve"/>
			<point x="98.4853515625" y="-201.0036621094" type="line"/>
			<point x="108.2835693359" y="-200.2629394531"/>
			<point x="98.0657348633" y="-204.5777587891"/>
			<point x="82.1611938477" y="-204.5777587891" type="qcurve" smooth="yes"/>
			<point x="105.1420898438" y="-204.5777587891"/>
			<point x="67.4714355469" y="-123.0572509766"/>
			<point x="100.4714355469" y="26.9965820312" type="qcurve" smooth="yes"/>
			<point x="253.7259521484" y="760" type="line"/>
			<point x="374.1262207031" y="1360.8013916016" type="line"/>
			<point x="212.2454223633" y="1388.8013916016" type="line"/>
			<point x="224.6452636719" y="1500" type="line"/>
			<point x="757.3165283203" y="1500" type="line"/>
			<point x="743.9166870117" y="1388.8013916016" type="line"/>
			<point x="544.7960205078" y="1360.8013916016" type="line"/>
			<point x="415.3957519531" y="748" type="line"/>
			<point x="270.1412353516" y="36.9965820312" type="line" smooth="yes"/>
			<point x="234.1412353516" y="-134.1110839844"/>
			<point x="130.5610961914" y="-305.2253417969"/>
			<point x="100.7178344727" y="-305.2253417969" type="qcurve" smooth="yes"/>
			<point x="106.3038330078" y="-305.2253417969"/>
			<point x="75.4211425781" y="-301.1697998047"/>
		</contour>
	</outline>
	<anchor name="bottom" x="376" y="-208"/>
	<anchor name="top" x="533" y="1500"/>
	<anchor name="_liga" x="0" y="0"/>
</glyph>
<glyph name="K" format="2">
	<unicode hex="004B"/>
	<advance width="1198"/>
	<outline>
		<contour>
			<point x="-69.1539306641" y="0" type="line"/>
			<point x="-47.9540405273" y="99.9987792969" type="line"/>
			<point x="139.0465698242" y="124.9987792969" type="line"/>
			<point x="306.8468017578" y="858" type="line"/>
			<point x="408.2470703125" y="1360.8013916016" type="line"/>
			<point x="234.4462280273" y="1387.8013916016" type="line"/>
			<point x="245.8460693359" y="1500" type="line"/>
			<point x="812.8508300781" y="1500" type="line"/>
			<point x="795.4509887695" y="1387.8013916016" type="line"/>
			<point x="584.2503662109" y="1360.8013916016" type="line"/>
			<point x="461.8499755859" y="814" type="line"/>
			<point x="316.7165527344" y="124.9987792969" type="line"/>
			<point x="502.7174072266" y="99.9987792969" type="line"/>
			<point x="492.5175170898" y="0" type="line"/>
		</contour>
		<contour>
			<point x="330.6762084961" y="511.4862670898" type="line"/>
			<point x="349.0756225586" y="670.0390014648" type="line"/>
			<point x="1017.9243164062" y="1363.8013916016" type="line"/>
			<point x="799.1233520508" y="1388.8013916016" type="line"/>
			<point x="810.5231933594" y="1500" type="line"/>
			<point x="1398.1906738281" y="1500" type="line"/>
			<point x="1385.7908325195" y="1388.8013916016" type="line"/>
			<point x="1166.5902099609" y="1362.8013916016" type="line"/>
		</contour>
		<contour>
			<point x="523.2580566406" y="821.7772216797" type="line"/>
			<point x="666.8464355469" y="979.2869262695" type="line"/>
			<point x="981.8893432617" y="119.9987792969" type="line"/>
			<point x="1146.8901977539" y="100.9987792969" type="line"/>
			<point x="1139.6903076172" y="0" type="line"/>
			<point x="600.3521728516" y="0" type="line"/>
			<point x="607.5520629883" y="99.9987792969" type="line"/>
			<point x="789.5526733398" y="119.9987792969" type="line"/>
		</contour>
	</outline>
	<anchor name="bottom" x="607" y="0"/>
	<anchor name="top" x="896" y="1500"/>
	<anchor name="kai_tail" x="1201" y="100"/>
</glyph>
<glyph name="L" format="2">
	<unicode hex="004C"/>
	<advance width="1180"/>
	<outline>
		<contour>
			<point x="-86.9722290039" y="0" type="line"/>
			<point x="-67.9723510742" y="99.9987792969" type="line"/>
			<point x="136.2282714844" y="122.9987792969" type="line"/>
			<point x="291.028503418" y="808" type="line"/>
			<point x="404.4287719727" y="1361.6013793945" type="line"/>
			<point x="230.4279174805" y="1388.6013793945" type="line"/>
			<point x="242.0277709961" y="1500" type="line"/>
			<point x="778.3657226562" y="1500" type="line"/>
			<point x="764.7658691406" y="1390.6013793945" type="line"/>
			<point x="573.7652587891" y="1361.6013793945" type="line"/>
			<point x="443.3649902344" y="754" type="line"/>
			<point x="309.0686035156" y="129.2032470703" type="line"/>
			<point x="327.0686035156" y="98.2032470703" type="line"/>
			<point x="888.5080566406" y="98.2032470703" type="line"/>
			<point x="1057.318359375" y="504.0654907227" type="line"/>
			<point x="1164.6794433594" y="504.0654907227" type="line"/>
			<point x="1021.2952880859" y="0" type="line"/>
		</contour>
	</outline>
	<anchor name="bottom" x="535" y="0"/>
	<anchor name="centerright" x="755" y="750"/>
	<anchor name="top" x="878" y="1500"/>
	<anchor name="topright" x="804" y="1001"/>
	<anchor name="center" x="397" y="750"/>
	<anchor name="liga" x="1104" y="0"/>
</glyph>
<glyph name="M" format="2">
	<unicode hex="004D"/>
	<advance width="1812"/>
	<outline>
		<contour>
			<point x="-103.6088256836" y="0" type="line"/>
			<point x="-85.4089355469" y="99.9987792969" type="line"/>
			<point x="132.5916748047" y="129.9987792969" type="line"/>
			<point x="295.5726318359" y="758" type="line"/>
			<point x="443.5921630859" y="1353.8013916016" type="line"/>
			<point x="218.9913330078" y="1388.8013916016" type="line"/>
			<point x="231.3911743164" y="1500" type="line"/>
			<point x="733.5935668945" y="1500" type="line"/>
			<point x="773.2358398438" y="777.7947387695" type="line"/>
			<point x="812.2669067383" y="300.4028320312" type="line"/>
			<point x="811.5136108398" y="201.2764892578" type="line"/>
			<point x="812.5136108398" y="201.2764892578" type="line"/>
			<point x="857.0988769531" y="298.4027709961" type="line"/>
			<point x="1172.8966674805" y="900.0665283203" type="line"/>
			<point x="1452.0151367188" y="1500" type="line"/>
			<point x="1883.0962524414" y="1500" type="line"/>
			<point x="1862.2965087891" y="1386.8013916016" type="line"/>
			<point x="1659.4957885742" y="1360.8013916016" type="line"/>
			<point x="1549.0955810547" y="746" type="line"/>
			<point x="1431.2952270508" y="129.9987792969" type="line"/>
			<point x="1623.296081543" y="99.9987792969" type="line"/>
			<point x="1613.0961914062" y="0" type="line"/>
			<point x="1066.7582397461" y="0" type="line"/>
			<point x="1077.9581298828" y="99.9987792969" type="line"/>
			<point x="1268.9587402344" y="129.9987792969" type="line"/>
			<point x="1391.7591552734" y="749" type="line"/>
			<point x="1499.1755981445" y="1305.9813232422" type="line"/>
			<point x="1520.5927124023" y="1425.6665039062" type="line"/>
			<point x="1519.5927124023" y="1425.6665039062" type="line"/>
			<point x="1455.2761230469" y="1297.1278076172" type="line"/>
			<point x="1231.6540527344" y="821.7592163086" type="line"/>
			<point x="790.2031860352" y="-5" type="line"/>
			<point x="658.2949829102" y="-5" type="line"/>
			<point x="600.772277832" y="784.8020629883" type="line"/>
			<point x="567.3743286133" y="1303.6654663086" type="line"/>
			<point x="556.2803344727" y="1449.3148193359" type="line"/>
			<point x="555.2803344727" y="1447.9444580078" type="line"/>
			<point x="531.5587158203" y="1309.9444580078" type="line"/>
			<point x="389.6506958008" y="754" type="line"/>
			<point x="237.5356445312" y="129.9987792969" type="line"/>
			<point x="467.5363769531" y="99.9987792969" type="line"/>
			<point x="446.3366088867" y="0" type="line"/>
		</contour>
	</outline>
	<anchor name="bottom" x="768" y="0"/>
	<anchor name="top" x="1048" y="1500"/>
</glyph>
<glyph name="N" format="2">
	<unicode hex="004E"/>
	<advance width="1648"/>
	<outline>
		<contour>
			<point x="-92.6088256836" y="0" type="line"/>
			<point x="-73.4089355469" y="99.9987792969" type="line"/>
			<point x="124.591796875" y="128.9987792969" type="line"/>
			<point x="291.3919067383" y="757" type="line"/>
			<point x="450.9920654297" y="1355.8013916016" type="line"/>
			<point x="215.9913330078" y="1388.8013916016" type="line"/>
			<point x="228.3911743164" y="1500" type="line"/>
			<point x="667.1505737305" y="1500" type="line"/>
			<point x="945.4908447266" y="768.1953125" type="line"/>
			<point x="1116.1226806641" y="344.9176635742" type="line"/>
			<point x="1130.4190673828" y="279.9945678711" type="line"/>
			<point x="1131.4190673828" y="279.9945678711" type="line"/>
			<point x="1149.0672607422" y="350.9945678711" type="line"/>
			<point x="1253.6565551758" y="755" type="line"/>
			<point x="1402.6567382812" y="1361.0014038086" type="line"/>
			<point x="1165.6560058594" y="1388.0014038086" type="line"/>
			<point x="1178.6558227539" y="1500" type="line"/>
			<point x="1681.8049926758" y="1500" type="line"/>
			<point x="1669.8051757812" y="1388.0014038086" type="line"/>
			<point x="1499.8044433594" y="1361.0014038086" type="line"/>
			<point x="1346.8042602539" y="750" type="line"/>
			<point x="1170.8042602539" y="-4" type="line"/>
			<point x="1042.6920166016" y="-4" type="line"/>
			<point x="785.3584594727" y="719.5986328125" type="line"/>
			<point x="558.1553955078" y="1191.6109619141" type="line"/>
			<point x="520.5390625" y="1295.0531005859" type="line"/>
			<point x="519.5390625" y="1295.0531005859" type="line"/>
			<point x="495.6317138672" y="1173.0531005859" type="line"/>
			<point x="385.8544311523" y="755" type="line"/>
			<point x="224.0543212891" y="128.9987792969" type="line"/>
			<point x="474.0550537109" y="99.9987792969" type="line"/>
			<point x="460.8551635742" y="0" type="line"/>
		</contour>
	</outline>
	<anchor name="bottom" x="640" y="0"/>
	<anchor name="top" x="884" y="1500"/>
	<anchor name="engtail" x="1041" y="0"/>
	<anchor name="liga" x="1432" y="0"/>
</glyph>
<glyph name="P" format="2">
	<unicode hex="0050"/>
	<advance width="1257"/>
	<outline>
		<contour>
			<point x="-131.0783081055" y="1" type="line"/>
			<point x="-110.8784179688" y="99.9987792969" type="line"/>
			<point x="101.1221923828" y="124.9987792969" type="line"/>
			<point x="230.5891113281" y="710" type="line"/>
			<point x="365.1226806641" y="1360.8013916016" type="line"/>
			<point x="173.5218505859" y="1388.8013916016" type="line"/>
			<point x="186.9216918945" y="1500" type="line"/>
			<point x="823.3432006836" y="1500" type="line" smooth="yes"/>
			<point x="1087.6326293945" y="1500"/>
			<point x="1347.8614501953" y="1261"/>
			<point x="1316.2877807617" y="1073" type="qcurve" smooth="yes"/>
			<point x="1281.7141113281" y="862"/>
			<point x="908.3438720703" y="558.9078369141"/>
			<point x="741.6326293945" y="558.9078369141" type="qcurve" smooth="yes"/>
			<point x="575.1878051758" y="558.9078369141"/>
			<point x="334.3056030273" y="587.9265136719"/>
			<point x="297.9057006836" y="594.5006713867" type="qcurve"/>
			<point x="317.5908203125" y="682.0003662109" type="line"/>
			<point x="332.5546875" y="667.0001220703"/>
			<point x="523.3399047852" y="642"/>
			<point x="718.4877929688" y="642" type="qcurve" smooth="yes"/>
			<point x="876.0034790039" y="642"/>
			<point x="1094.9509887695" y="868"/>
			<point x="1128.9509887695" y="1054" type="qcurve" smooth="yes"/>
			<point x="1162.9509887695" y="1238"/>
			<point x="957.0403442383" y="1399.3153076172"/>
			<point x="739.8453979492" y="1399.3153076172" type="qcurve" smooth="yes"/>
			<point x="560.2034301758" y="1399.3153076172" type="line"/>
			<point x="535.5182495117" y="1382.3153076172" type="line"/>
			<point x="392.2589111328" y="690" type="line"/>
			<point x="267.9920043945" y="125.9987792969" type="line"/>
			<point x="509.7928466797" y="99.9987792969" type="line"/>
			<point x="498.592956543" y="1" type="line"/>
		</contour>
	</outline>
	<anchor name="bottom" x="634" y="0"/>
	<anchor name="top" x="634" y="1500"/>
</glyph>
<glyph name="R" format="2">
	<unicode hex="0052"/>
	<advance width="1311"/>
	<outline>
		<contour>
			<point x="-80.6088256836" y="0" type="line"/>
			<point x="-62.4090576172" y="99.9987792969" type="line"/>
			<point x="128.5916748047" y="122.9987792969" type="line"/>
			<point x="280.0587158203" y="784" type="line"/>
			<point x="383.1254272461" y="1360.8013916016" type="line"/>
			<point x="172.3245849609" y="1388.8013916016" type="line"/>
			<point x="186.7244262695" y="1500" type="line"/>
			<point x="822.0510253906" y="1500" type="line" smooth="yes"/>
			<point x="989.1304321289" y="1500"/>
			<point x="1229.8504638672" y="1321"/>
			<point x="1207.8743286133" y="1141" type="qcurve" smooth="yes"/>
			<point x="1184.9912719727" y="962"/>
			<point x="830.2069702148" y="693.7409667969"/>
			<point x="735.3922119141" y="693.7409667969" type="qcurve" smooth="yes"/>
			<point x="659.1577148438" y="693.7409667969"/>
			<point x="382.0789794922" y="696.7409667969"/>
			<point x="348.2084350586" y="703.4077148438" type="qcurve"/>
			<point x="368.875" y="789.7775878906" type="line"/>
			<point x="482.8764038086" y="783.7775878906" type="line"/>
			<point x="652.4143066406" y="783.7775878906" type="line" smooth="yes"/>
			<point x="825.4405517578" y="783.7775878906"/>
			<point x="1001.9638671875" y="981"/>
			<point x="1015.8707885742" y="1133" type="qcurve" smooth="yes"/>
			<point x="1032.7777099609" y="1323"/>
			<point x="889.1416015625" y="1397.9449462891"/>
			<point x="772.6610107422" y="1397.9449462891" type="qcurve" smooth="yes"/>
			<point x="580.6729736328" y="1397.9449462891" type="line"/>
			<point x="555.9877929688" y="1380.9449462891" type="line"/>
			<point x="433.0617675781" y="751" type="line"/>
			<point x="299.2615356445" y="124.9987792969" type="line"/>
			<point x="504.2622680664" y="99.9987792969" type="line"/>
			<point x="485.0625" y="0" type="line"/>
		</contour>
		<contour>
			<point x="622.5916748047" y="728.8645019531" type="line"/>
			<point x="779.9279174805" y="759.9761352539" type="line"/>
			<point x="792.417175293" y="700" type="line" smooth="yes"/>
			<point x="975.01953125" y="335.6047363281"/>
			<point x="1081.1041259766" y="118.4303588867"/>
			<point x="1261.1087036133" y="96.1987915039" type="qcurve"/>
			<point x="1236.5367431641" y="0" type="line"/>
			<point x="1193.6536865234" y="0" type="line" smooth="yes"/>
			<point x="990.0738525391" y="-3"/>
			<point x="807.3723144531" y="297.9069213867"/>
			<point x="645.3752441406" y="674" type="qcurve" smooth="yes"/>
		</contour>
	</outline>
	<anchor name="bottom" x="573" y="0"/>
	<anchor name="top" x="670" y="1500"/>
</glyph>
<glyph name="S" format="2">
	<unicode hex="0053"/>
	<advance width="931"/>
	<outline>
		<contour>
			<point x="-24.9855957031" y="-19.6080322266" type="line"/>
			<point x="88.4616699219" y="505.4438476562" type="line"/>
			<point x="187.5026855469" y="505.4438476562" type="line"/>
			<point x="181.142578125" y="381.1477050781" type="line" smooth="yes"/>
			<point x="178.005065918" y="215.5180664062"/>
			<point x="283.4764404297" y="59.2216796875"/>
			<point x="396.7135620117" y="59.2216796875" type="qcurve" smooth="yes"/>
			<point x="495.8200073242" y="59.2216796875"/>
			<point x="728.4765014648" y="172.4256591797"/>
			<point x="761.4765014648" y="306.9442138672" type="qcurve" smooth="yes"/>
			<point x="793.4765014648" y="447.0552978516"/>
			<point x="608.6522216797" y="626.5042724609"/>
			<point x="488.3436279297" y="743.5579833984" type="qcurve" smooth="yes"/>
			<point x="321.4683227539" y="866.2899780273"/>
			<point x="216.5000610352" y="1076.6287841797"/>
			<point x="250.5000610352" y="1279" type="qcurve" smooth="yes"/>
			<point x="280.5000610352" y="1406"/>
			<point x="495.3854980469" y="1527"/>
			<point x="592.30859375" y="1527" type="qcurve" smooth="yes"/>
			<point x="704.692199707" y="1527"/>
			<point x="869.1146850586" y="1452.0335083008"/>
			<point x="888.900390625" y="1421.7839355469" type="qcurve"/>
			<point x="962.7899169922" y="1526.0482177734" type="line"/>
			<point x="1046.1907958984" y="1508.3680419922" type="line"/>
			<point x="947.3731689453" y="1030.4721069336" type="line"/>
			<point x="846.9720458984" y="1030.4721069336" type="line"/>
			<point x="840.2172851562" y="1230.861328125" type="line"/>
			<point x="857.3376464844" y="1334.4611816406"/>
			<point x="681.0350952148" y="1428.2042236328"/>
			<point x="623.8914794922" y="1428.2042236328" type="qcurve" smooth="yes"/>
			<point x="564.4376831055" y="1428.2042236328"/>
			<point x="429.9822387695" y="1353.9447021484"/>
			<point x="399.9822387695" y="1254.6122436523" type="qcurve" smooth="yes"/>
			<point x="371.9822387695" y="1112.9080200195"/>
			<point x="532.7799072266" y="961.2315673828"/>
			<point x="731.524230957" y="817.1578369141" type="qcurve" smooth="yes"/>
			<point x="763.4584960938" y="730.1976318359"/>
			<point x="948.8479003906" y="504.3346557617"/>
			<point x="908.8479003906" y="316.0006713867" type="qcurve" smooth="yes"/>
			<point x="868.5145874023" y="128.3335571289"/>
			<point x="568.0786743164" y="-40"/>
			<point x="426.2506103516" y="-40" type="qcurve" smooth="yes"/>
			<point x="339.8013916016" y="-40"/>
			<point x="187.5225219727" y="49.0798339844"/>
			<point x="159.7847900391" y="114.5595703125" type="qcurve"/>
			<point x="52.3882446289" y="-36.2882080078" type="line"/>
		</contour>
	</outline>
	<anchor name="bottom" x="399" y="0"/>
	<anchor name="top" x="679" y="1500"/>
</glyph>
<glyph name="U" format="2">
	<unicode hex="0055"/>
	<advance width="1365"/>
	<outline>
		<contour>
			<point x="201.7982788086" y="1388.8013916016" type="line"/>
			<point x="215.9981079102" y="1500" type="line"/>
			<point x="768.3362426758" y="1500" type="line"/>
			<point x="752.1364135742" y="1388.8013916016" type="line"/>
			<point x="554.1358032227" y="1360.8013916016" type="line"/>
			<point x="425.6686401367" y="794" type="line" smooth="yes"/>
			<point x="395.3352661133" y="657"/>
			<point x="357.6686401367" y="418"/>
			<point x="357.6686401367" y="322" type="qcurve" smooth="yes"/>
			<point x="357.6686401367" y="224.3344116211"/>
			<point x="495.7969970703" y="89.9016723633"/>
			<point x="601.9206542969" y="89.9016723633" type="qcurve" smooth="yes"/>
			<point x="774.9733886719" y="89.9016723633"/>
			<point x="967.8206787109" y="268.7960205078"/>
			<point x="1002.5985107422" y="422" type="qcurve" smooth="yes"/>
			<point x="1103.5985107422" y="882" type="line"/>
			<point x="1206.5987548828" y="1360.8013916016" type="line"/>
			<point x="955.3979492188" y="1388.8013916016" type="line"/>
			<point x="969.5977783203" y="1500" type="line"/>
			<point x="1563.8764648438" y="1500" type="line"/>
			<point x="1550.6766357422" y="1388.8013916016" type="line"/>
			<point x="1311.2760009766" y="1360.8013916016" type="line"/>
			<point x="1207.0794677734" y="881" type="line"/>
			<point x="1112.4498291016" y="425" type="line" smooth="yes"/>
			<point x="1071.8201904297" y="226"/>
			<point x="799.1027832031" y="-18.857421875"/>
			<point x="550.8458251953" y="-18.857421875" type="qcurve" smooth="yes"/>
			<point x="357.5612182617" y="-18.857421875"/>
			<point x="177.3319702148" y="170"/>
			<point x="177.3319702148" y="334" type="qcurve" smooth="yes"/>
			<point x="177.3319702148" y="420"/>
			<point x="231.998840332" y="673.3333129883"/>
			<point x="256.998840332" y="794" type="qcurve" smooth="yes"/>
			<point x="379.1990966797" y="1357.8013916016" type="line"/>
		</contour>
	</outline>
	<anchor name="bottom" x="588" y="0"/>
	<anchor name="ogonek" x="810" y="0"/>
	<anchor name="top" x="908" y="1500"/>
	<anchor name="topright" x="1561" y="1500"/>
</glyph>
<glyph name="W" format="2">
	<unicode hex="0057"/>
	<advance width="1529"/>
	<outline>
		<contour>
			<point x="-8.9952392578" y="1388.8013916016" type="line"/>
			<point x="11.2044677734" y="1500" type="line"/>
			<point x="641.4594726562" y="1500" type="line"/>
			<point x="622.259765625" y="1387.8013916016" type="line"/>
			<point x="361.2590332031" y="1356.8013916016" type="line"/>
			<point x="389.0443725586" y="803.7131958008" type="line"/>
			<point x="414.9001464844" y="433.612487793" type="line"/>
			<point x="415.3668212891" y="283.301574707" type="line"/>
			<point x="417.6267700195" y="283.301574707" type="line"/>
			<point x="497.2266845703" y="440.1561279297" type="line"/>
			<point x="618.7578735352" y="704.3797607422" type="line"/>
			<point x="841.733215332" y="1132.6533203125" type="line"/>
			<point x="826.1403198242" y="1357.2012939453" type="line"/>
			<point x="605.1395874023" y="1387.2012939453" type="line"/>
			<point x="625.9393310547" y="1500" type="line"/>
			<point x="1260.8031616211" y="1500" type="line"/>
			<point x="1246.0034179688" y="1387.8013916016" type="line"/>
			<point x="978.0026855469" y="1351.8013916016" type="line"/>
			<point x="1011.3308105469" y="709.4923095703" type="line"/>
			<point x="1030.9057617188" y="432.2606201172" type="line"/>
			<point x="1032.376953125" y="287.6348876953" type="line"/>
			<point x="1034.6369018555" y="287.6348876953" type="line"/>
			<point x="1104.0282592773" y="440.5910644531" type="line"/>
			<point x="1275.7158203125" y="792.8176269531" type="line"/>
			<point x="1508.5216674805" y="1342.8013916016" type="line"/>
			<point x="1294.5209350586" y="1388.8013916016" type="line"/>
			<point x="1308.9207763672" y="1500" type="line"/>
			<point x="1921.5303344727" y="1500" type="line"/>
			<point x="1908.1304931641" y="1388.0014038086" type="line"/>
			<point x="1636.1297607422" y="1343.0014038086" type="line"/>
			<point x="1367.1329345703" y="751.5366821289" type="line"/>
			<point x="981.6918334961" y="-5.2856445312" type="line"/>
			<point x="869.5797119141" y="-5.2856445312" type="line"/>
			<point x="856.1105957031" y="726.2033691406" type="line"/>
			<point x="844.0965576172" y="999.7813720703" type="line"/>
			<point x="843.0965576172" y="999.7813720703" type="line"/>
			<point x="712.9036865234" y="738.7056884766" type="line"/>
			<point x="384.397644043" y="-3.2856445312" type="line"/>
			<point x="256.8876953125" y="-5.2856445312" type="line"/>
			<point x="235.7081298828" y="719.0452880859" type="line"/>
			<point x="189.0054931641" y="1356.8013916016" type="line"/>
		</contour>
	</outline>
	<anchor name="bottom" x="691" y="0"/>
	<anchor name="top" x="981" y="1500"/>
</glyph>
<glyph name="X" format="2">
	<unicode hex="0058"/>
	<advance width="1333"/>
	<outline>
		<contour>
			<point x="-167.6592407227" y="0" type="line"/>
			<point x="-154.4593505859" y="99.9987792969" type="line"/>
			<point x="83.5413818359" y="125.9987792969" type="line"/>
			<point x="631.5982666016" y="754.7400512695" type="line"/>
			<point x="365.758605957" y="1359.8013916016" type="line"/>
			<point x="162.7578735352" y="1388.8013916016" type="line"/>
			<point x="175.1577148438" y="1500" type="line"/>
			<point x="787.8294067383" y="1500" type="line"/>
			<point x="774.4295654297" y="1387.8013916016" type="line"/>
			<point x="554.4288330078" y="1359.8013916016" type="line"/>
			<point x="704.0014648438" y="1056.5571289062" type="line"/>
			<point x="762.749206543" y="943.5140380859" type="line"/>
			<point x="763.749206543" y="943.5140380859" type="line"/>
			<point x="874.5551147461" y="1066.7543334961" type="line"/>
			<point x="1123.0022583008" y="1349.8013916016" type="line"/>
			<point x="892.0015258789" y="1387.8013916016" type="line"/>
			<point x="905.4013671875" y="1500" type="line"/>
			<point x="1503.8039550781" y="1500" type="line"/>
			<point x="1488.4041137695" y="1387.8013916016" type="line"/>
			<point x="1237.4033813477" y="1350.8013916016" type="line"/>
			<point x="765.4733276367" y="840.0005493164" type="line"/>
			<point x="1065.1520385742" y="124.9987792969" type="line"/>
			<point x="1274.1527709961" y="99.9987792969" type="line"/>
			<point x="1263.9528808594" y="0" type="line"/>
			<point x="610.6145019531" y="0" type="line"/>
			<point x="623.8143920898" y="99.9987792969" type="line"/>
			<point x="877.8151245117" y="124.9987792969" type="line"/>
			<point x="673.7058105469" y="564.6058349609" type="line"/>
			<point x="629.2247314453" y="651.907409668" type="line"/>
			<point x="628.2247314453" y="651.907409668" type="line"/>
			<point x="542.0833129883" y="558.2425537109" type="line"/>
			<point x="164.563659668" y="123.9987792969" type="line"/>
			<point x="450.5643920898" y="99.9987792969" type="line"/>
			<point x="437.3645019531" y="0" type="line"/>
		</contour>
	</outline>
	<anchor name="bottom" x="453" y="0"/>
	<anchor name="top" x="723" y="1500"/>
	<anchor name="cy_descender" x="1125" y="100"/>
	<anchor name="center" x="591" y="791"/>
</glyph>
<glyph name="Y" format="2">
	<unicode hex="0059"/>
	<advance width="1175"/>
	<outline>
		<contour>
			<point x="219.1456298828" y="0" type="line"/>
			<point x="230.3455200195" y="99.9987792969" type="line"/>
			<point x="440.3461303711" y="119.9987792969" type="line"/>
			<point x="543.6649169922" y="591.5927734375" type="line"/>
			<point x="383.2020874023" y="929.9290161133" type="line"/>
			<point x="198.4262084961" y="1353.8013916016" type="line"/>
			<point x="14.4254760742" y="1387.8013916016" type="line"/>
			<point x="27.8253173828" y="1500" type="line"/>
			<point x="597.1151733398" y="1500" type="line"/>
			<point x="582.7153320312" y="1387.8013916016" type="line"/>
			<point x="363.7145996094" y="1353.8013916016" type="line"/>
			<point x="534.1666259766" y="1015.9533691406" type="line"/>
			<point x="675.4877319336" y="717.2106323242" type="line"/>
			<point x="676.4877319336" y="717.2106323242" type="line"/>
			<point x="986.299987793" y="1108.8969116211" type="line"/>
			<point x="1163.1708374023" y="1348.8013916016" type="line"/>
			<point x="938.1701049805" y="1387.8013916016" type="line"/>
			<point x="952.5699462891" y="1500" type="line"/>
			<point x="1524.5131225586" y="1500" type="line"/>
			<point x="1508.11328125" y="1387.8013916016" type="line"/>
			<point x="1269.1125488281" y="1347.8013916016" type="line"/>
			<point x="1059.8411865234" y="1051.6239013672" type="line"/>
			<point x="715.7372436523" y="628.6474609375" type="line"/>
			<point x="612.6825561523" y="119.9987792969" type="line"/>
			<point x="793.6834106445" y="99.9987792969" type="line"/>
			<point x="782.4835205078" y="0" type="line"/>
		</contour>
	</outline>
	<anchor name="bottom" x="443" y="0"/>
	<anchor name="top" x="731" y="1500"/>
	<anchor name="tonos" x="-13" y="1500"/>
	<anchor name="center" x="553" y="579"/>
</glyph>
<glyph name="a" format="2">
	<unicode hex="0061"/>
	<advance width="1104"/>
	<outline>
		<contour>
			<point x="-15.2526855469" y="301" type="qcurve" smooth="yes"/>
			<point x="-15.2526855469" y="579.4870605469"/>
			<point x="427.6753815441" y="1021.4877929688"/>
			<point x="611.8214997082" y="1021.4877929688" type="qcurve" smooth="yes"/>
			<point x="708.7367829113" y="1021.4877929688"/>
			<point x="803.4053344727" y="965.4877929688"/>
			<point x="818.1771850586" y="940.4877929688" type="qcurve"/>
			<point x="890.6638183594" y="1009.4877929688" type="line"/>
			<point x="916.3128051758" y="1003.4877929688" type="line"/>
			<point x="963.646817091" y="982.4877929688" type="line"/>
			<point x="831.9486359387" y="402" type="line"/>
			<point x="791.9486359387" y="239" type="line"/>
			<point x="771.2915314465" y="162"/>
			<point x="797.749173048" y="28"/>
			<point x="820.3208893566" y="-2" type="qcurve"/>
			<point x="609.357300203" y="-7" type="line"/>
			<point x="619.9882206132" y="24.5710449219"/>
			<point x="609.6978763749" y="136.3646850586"/>
			<point x="621.9169925859" y="209.7070922852" type="qcurve"/>
			<point x="557.9436649491" y="96.0224609375"/>
			<point x="360.592041414" y="-8"/>
			<point x="264.9796146562" y="-8" type="qcurve" smooth="yes"/>
			<point x="156.244018953" y="-8"/>
			<point x="-15.2526855469" y="138"/>
		</contour>
		<contour>
			<point x="160.7504272461" y="291" type="qcurve" smooth="yes"/>
			<point x="160.7504272461" y="149"/>
			<point x="248.0919464855" y="82.2568359375"/>
			<point x="316.4471710949" y="82.2568359375" type="qcurve" smooth="yes"/>
			<point x="425.1246613293" y="82.2568359375"/>
			<point x="638.1023834972" y="254.4428710938"/>
			<point x="664.217041414" y="379.2568359375" type="qcurve" smooth="yes"/>
			<point x="769.4470490246" y="819.0444335938" type="line"/>
			<point x="749.8854370117" y="841.0444335938"/>
			<point x="701.1301544933" y="897.0444335938"/>
			<point x="612.1288117199" y="897.0444335938" type="qcurve" smooth="yes"/>
			<point x="424.1548126965" y="897.0444335938"/>
			<point x="160.7504272461" y="559.4870605469"/>
		</contour>
	</outline>
	<anchor name="bottom" x="345" y="0"/>
	<anchor name="ogonek" x="732" y="0"/>
	<anchor name="top" x="608" y="1000"/>
</glyph>
<glyph name="b" format="2">
	<unicode hex="0062"/>
	<advance width="1101"/>
	<outline>
		<contour>
			<point x="39.7280325017" y="201" type="qcurve" smooth="yes"/>
			<point x="123.3945974431" y="594" type="line"/>
			<point x="278.6381887517" y="1429.3582763672" type="line"/>
			<point x="128.0655569157" y="1404.3582763672" type="line"/>
			<point x="144.9744924626" y="1475.2669677734" type="line"/>
			<point x="412.8817800602" y="1561.2669677734" type="line"/>
			<point x="475.8834280095" y="1510.9323120117" type="line"/>
			<point x="280.0643972477" y="585" type="line"/>
			<point x="194.3978323063" y="162" type="line" smooth="yes"/>
			<point x="189.3902029118" y="138.0703125"/>
			<point x="220.4592947087" y="103.8618164062"/>
			<point x="268.2334646306" y="103.8618164062" type="qcurve" smooth="yes"/>
			<point x="502.2390188298" y="103.8618164062"/>
			<point x="845.380498322" y="439.4600830078"/>
			<point x="847.0376028142" y="686.7849121094" type="qcurve" smooth="yes"/>
			<point x="847.0376028142" y="805.1799316406"/>
			<point x="783.5589651188" y="876.4113769531"/>
			<point x="694.9547781071" y="876.4113769531" type="qcurve" smooth="yes"/>
			<point x="606.8255056462" y="876.4113769531"/>
			<point x="218.9834646306" y="627.4122314453"/>
			<point x="213.4258474431" y="577.8934326172" type="qcurve"/>
			<point x="234.9419607243" y="723.1209106445" type="line"/>
			<point x="248.0736745915" y="752.2131347656"/>
			<point x="671.5944265446" y="1004.7849121094"/>
			<point x="764.8405813298" y="1004.7849121094" type="qcurve" smooth="yes"/>
			<point x="869.7716116032" y="1004.7849121094"/>
			<point x="1043.202763947" y="847.7849121094"/>
			<point x="1041.3742117009" y="704.7849121094" type="qcurve" smooth="yes"/>
			<point x="1037.7171072087" y="426.4600830078"/>
			<point x="611.0037283024" y="-11"/>
			<point x="249.4653982243" y="-11" type="qcurve" smooth="yes"/>
			<point x="174.6964162907" y="-11"/>
			<point x="15.7280325017" y="92"/>
		</contour>
	</outline>
	<anchor name="bottom" x="571" y="0"/>
	<anchor name="top" x="571" y="1533"/>
</glyph>
<glyph name="c" format="2">
	<unicode hex="0063"/>
	<advance width="927"/>
	<outline>
		<contour>
			<point x="24.4226074219" y="510.4061279297" type="qcurve" smooth="yes"/>
			<point x="63.1794433594" y="741.4334716797"/>
			<point x="412.0345458984" y="1034.6692504883"/>
			<point x="579.2854614258" y="1034.6692504883" type="qcurve" smooth="yes"/>
			<point x="768.7354125977" y="1034.6692504883"/>
			<point x="887.4823608398" y="899.0346679688"/>
			<point x="887.4823608398" y="802.0348510742" type="qcurve" smooth="yes"/>
			<point x="887.4823608398" y="737.9238891602"/>
			<point x="795.0364379883" y="660.1463623047"/>
			<point x="721.5906982422" y="633.0352783203" type="qcurve"/>
			<point x="668.2569580078" y="652.0352783203" type="line"/>
			<point x="673.2569580078" y="824.0352783203" type="line" smooth="yes"/>
			<point x="674.2569580078" y="868.0352783203"/>
			<point x="658.1682739258" y="925.8922729492"/>
			<point x="553.7482910156" y="925.8922729492" type="qcurve" smooth="yes"/>
			<point x="418.5208740234" y="925.8922729492"/>
			<point x="222.6270141602" y="669.0675048828"/>
			<point x="195.4256591797" y="497.4061279297" type="qcurve" smooth="yes"/>
			<point x="170.4135131836" y="332.9009399414"/>
			<point x="294.5930175781" y="99.8088378906"/>
			<point x="416.0308837891" y="99.8088378906" type="qcurve" smooth="yes"/>
			<point x="556.5252685547" y="99.8088378906"/>
			<point x="760.3041992188" y="209.2216186523"/>
			<point x="807.2484130859" y="264.1108398438" type="qcurve"/>
			<point x="860.0765991211" y="211.2223510742" type="line"/>
			<point x="860.0765991211" y="177.6669921875" type="line"/>
			<point x="821.3574829102" y="138.5015869141"/>
			<point x="482.6619262695" y="-12.8569946289"/>
			<point x="315.0015869141" y="-12.8569946289" type="qcurve" smooth="yes"/>
			<point x="149.4208984375" y="-12.8569946289"/>
			<point x="-16.7396240234" y="264.1625976562"/>
		</contour>
	</outline>
	<anchor name="bottom" x="343" y="0"/>
	<anchor name="top" x="600" y="1000"/>
</glyph>
<glyph name="d" format="2">
	<unicode hex="0064"/>
	<advance width="1167"/>
	<outline>
		<contour>
			<point x="26.9727146786" y="295.9460449219" type="qcurve" smooth="yes"/>
			<point x="26.4783632941" y="563.4870605469"/>
			<point x="463.3677065558" y="1005.5697021484"/>
			<point x="749.4638979621" y="1005.7039794922" type="qcurve" smooth="yes"/>
			<point x="822.1332705207" y="995.7039794922" type="line"/>
			<point x="898.4812319465" y="1421.940612793" type="line"/>
			<point x="731.2723086066" y="1406.3041992188" type="line"/>
			<point x="748.1812441535" y="1477.212890625" type="line"/>
			<point x="1020.755279798" y="1567.212890625" type="line"/>
			<point x="1087.7571108527" y="1560.212890625" type="line"/>
			<point x="878.271271009" y="469" type="line"/>
			<point x="821.9075625129" y="130.8176879883" type="line"/>
			<point x="1049.8439028449" y="161.8176879883" type="line"/>
			<point x="1049.8439028449" y="76" type="line"/>
			<point x="740.9357607551" y="-6" type="line"/>
			<point x="657.9350893683" y="76.6682128906" type="line"/>
			<point x="683.6249087043" y="246.9067382812" type="line"/>
			<point x="673.4449770636" y="151.4184570312"/>
			<point x="346.7290346808" y="-7"/>
			<point x="289.4854433722" y="-7" type="qcurve" smooth="yes"/>
			<point x="161.8396914191" y="-7"/>
			<point x="28.1441624325" y="132.5676269531"/>
		</contour>
		<contour>
			<point x="204.9758274716" y="295.9460449219" type="qcurve" smooth="yes"/>
			<point x="206.1672671027" y="188.1064453125"/>
			<point x="226.1163027472" y="96.0942382812"/>
			<point x="332.7228701301" y="96.0942382812" type="qcurve" smooth="yes"/>
			<point x="464.1426699347" y="96.0942382812"/>
			<point x="681.9109194465" y="245"/>
			<point x="708.6017153449" y="402" type="qcurve" smooth="yes"/>
			<point x="787.4897768683" y="803.0047607422" type="line"/>
			<point x="788.4897768683" y="822.0047607422"/>
			<point x="712.4826967902" y="882.0047607422"/>
			<point x="656.6819765754" y="882.0047607422" type="qcurve" smooth="yes"/>
			<point x="410.5937807746" y="882.0047607422"/>
			<point x="203.6329319638" y="551.4870605469"/>
		</contour>
	</outline>
	<anchor name="bottom" x="604" y="0"/>
	<anchor name="center" x="876" y="1202"/>
	<anchor name="top" x="704" y="1534"/>
	<anchor name="topright" x="1076" y="1000"/>
	<anchor name="liga" x="1067" y="0"/>
</glyph>
<glyph name="e" format="2">
	<unicode hex="0065"/>
	<advance width="1055"/>
	<outline>
		<contour>
			<point x="12.9889526367" y="494.6762695312" type="qcurve" smooth="yes"/>
			<point x="49.5565795898" y="730.0550537109"/>
			<point x="455.9017944336" y="1030.5960693359"/>
			<point x="629.9558105469" y="1030.5960693359" type="qcurve" smooth="yes"/>
			<point x="765.9670410156" y="1030.5960693359"/>
			<point x="961.6452026367" y="909.6171264648"/>
			<point x="979.8157348633" y="847.6830444336" type="qcurve" smooth="yes"/>
			<point x="995.62109375" y="769.4897460938"/>
			<point x="975.8118896484" y="680.5290527344"/>
			<point x="959.3043212891" y="636.8118896484" type="qcurve"/>
			<point x="1054.3043212891" y="632.8118896484" type="line"/>
			<point x="1016.2574462891" y="540.7410888672" type="line"/>
			<point x="937.4736328125" y="539.7410888672"/>
			<point x="663.0152587891" y="539.7410888672"/>
			<point x="561.6546020508" y="538.7410888672" type="qcurve" smooth="yes"/>
			<point x="120.3544921875" y="531.7410888672" type="line"/>
			<point x="155.3240356445" y="628.8118896484" type="line"/>
			<point x="761.0651855469" y="634.8118896484" type="line"/>
			<point x="769.5634765625" y="672.1903076172"/>
			<point x="791.4949951172" y="695.839050293"/>
			<point x="794.4058227539" y="742.9720458984" type="qcurve" smooth="yes"/>
			<point x="792.483581543" y="813.3557739258"/>
			<point x="675.2731323242" y="911.7342529297"/>
			<point x="605.6314697266" y="911.7342529297" type="qcurve" smooth="yes"/>
			<point x="453.1881103516" y="911.7342529297"/>
			<point x="236.7543334961" y="719.4036865234"/>
			<point x="197.4028930664" y="491.0249023438" type="qcurve" smooth="yes"/>
			<point x="164.4298706055" y="296.5651855469"/>
			<point x="336.2807006836" y="92.8117675781"/>
			<point x="436.9409790039" y="80.0009765625" type="qcurve" smooth="yes"/>
			<point x="650.6102294922" y="62.839050293"/>
			<point x="876.1628417969" y="177.1832885742"/>
			<point x="924.4530029297" y="286.2011108398" type="qcurve"/>
			<point x="979.026184082" y="237.4184570312" type="line"/>
			<point x="995.305480957" y="200.2699584961" type="line"/>
			<point x="908.9709472656" y="98.8731079102"/>
			<point x="531.378112793" y="-26.7565307617"/>
			<point x="337.9691772461" y="-10" type="qcurve" smooth="yes"/>
			<point x="232.5486450195" y="4.2708740234"/>
			<point x="-20.2002563477" y="276.4057617188"/>
		</contour>
	</outline>
	<anchor name="bottom" x="339" y="0"/>
	<anchor name="ogonek" x="495" y="0"/>
	<anchor name="top" x="601" y="1000"/>
</glyph>
<glyph name="f" format="2">
	<unicode hex="0066"/>
	<advance width="441"/>
	<outline>
		<contour>
			<point x="-616.2578735352" y="-384.3957519531" type="line" smooth="yes"/>
			<point x="-601.3867797852" y="-217.30859375" type="line"/>
			<point x="-479.7471923828" y="-207.9450073242" type="line" smooth="yes"/>
			<point x="-278.7471923828" y="-197.6853637695"/>
			<point x="-43.0713500977" y="-13.5780639648"/>
			<point x="39.9286499023" y="399.4219360352" type="qcurve" smooth="yes"/>
			<point x="145.9925537109" y="922.0275878906" type="line"/>
			<point x="151.0623779297" y="946.1906738281" type="line"/>
			<point x="170.0343017578" y="1083.8068847656" type="line" smooth="yes"/>
			<point x="207.6829833984" y="1311.8609619141"/>
			<point x="415.6432495117" y="1551.8068847656"/>
			<point x="546.1965332031" y="1551.8068847656" type="qcurve" smooth="yes"/>
			<point x="619.2938232422" y="1551.8068847656"/>
			<point x="728.7678833008" y="1479.8068847656"/>
			<point x="728.7678833008" y="1421.8068847656" type="qcurve" smooth="yes"/>
			<point x="728.7678833008" y="1385.8068847656"/>
			<point x="700.7678833008" y="1350.8068847656"/>
			<point x="677.7678833008" y="1350.8068847656" type="qcurve" smooth="yes"/>
			<point x="654.7678833008" y="1350.8068847656"/>
			<point x="627.7678833008" y="1380.8068847656"/>
			<point x="627.7678833008" y="1436.8068847656" type="qcurve" smooth="yes"/>
			<point x="627.7678833008" y="1411.1779785156"/>
			<point x="589.9561157227" y="1435.5031738281"/>
			<point x="556.3831176758" y="1435.5031738281" type="qcurve" smooth="yes"/>
			<point x="476.6228027344" y="1435.5031738281"/>
			<point x="343.4665527344" y="1216.1666870117"/>
			<point x="298.0432739258" y="936.6892089844" type="qcurve" smooth="yes"/>
			<point x="309.7319335938" y="951.1906738281" type="line"/>
			<point x="308.8095092773" y="930.5393066406" type="line"/>
			<point x="253.6892089844" y="650.6042480469" type="line" smooth="yes"/>
			<point x="140.4278564453" y="60.6042480469"/>
			<point x="-208.3134155273" y="-409.3957519531"/>
			<point x="-483.9818725586" y="-409.3957519531" type="qcurve"/>
		</contour>
		<contour>
			<point x="-48.5956420898" y="882.7248535156" type="line"/>
			<point x="-52.4794311523" y="955.0744628906" type="line"/>
			<point x="183.8763427734" y="961.0744628906" type="line"/>
			<point x="521.4719848633" y="965.0744628906" type="line"/>
			<point x="517.5881958008" y="893.7248535156" type="line"/>
			<point x="249.3978881836" y="877.7248535156" type="line"/>
			<point x="192.0629272461" y="854.7248535156" type="line"/>
		</contour>
	</outline>
	<anchor name="bottom" x="217" y="0"/>
	<anchor name="top" x="554" y="1536"/>
</glyph>
<glyph name="g" format="2">
	<unicode hex="0067"/>
	<advance width="1000"/>
	<outline>
		<contour>
			<point x="-16.4628634166" y="305" type="qcurve" smooth="yes"/>
			<point x="2.1942410756" y="562.9194335938"/>
			<point x="400.6736111928" y="1018.3255615234"/>
			<point x="633.5223050405" y="1018.3255615234" type="qcurve" smooth="yes"/>
			<point x="737.9743924428" y="1018.3255615234"/>
			<point x="754.5132108022" y="961.3255615234"/>
			<point x="764.7980008413" y="933.3255615234" type="qcurve"/>
			<point x="821.1319852163" y="1003.3255615234" type="line"/>
			<point x="876.7995267202" y="1003.3255615234" type="line"/>
			<point x="937.4678616811" y="911.3255615234" type="line"/>
			<point x="875.1973538686" y="625" type="line" smooth="yes"/>
			<point x="819.7919583608" y="379.4053955078"/>
			<point x="803.5981107045" y="312.8038330078"/>
			<point x="754.5981107045" y="121.8038330078" type="qcurve" smooth="yes"/>
			<point x="699.2647977163" y="-97.1961669922"/>
			<point x="332.3434109975" y="-416.1961669922"/>
			<point x="167.617031603" y="-416.1961669922" type="qcurve"/>
			<point x="34.0146146108" y="-378.1961669922" type="line"/>
			<point x="37.2788968373" y="-256.6440429688" type="line"/>
			<point x="179.536587267" y="-236.6441650391" type="line" smooth="yes"/>
			<point x="363.0871243764" y="-219.4017944336"/>
			<point x="551.589687853" y="-44.3858032227"/>
			<point x="609.0190701772" y="196.9852905273" type="qcurve" smooth="yes"/>
			<point x="603.3179593373" y="160.2084960938" type="line"/>
			<point x="654.9654202748" y="124"/>
			<point x="394.076015978" y="-10"/>
			<point x="233.499477892" y="-9" type="qcurve" smooth="yes"/>
			<point x="131.0320096303" y="-8"/>
			<point x="-29.2914156627" y="145"/>
		</contour>
		<contour>
			<point x="161.8735623647" y="303" type="qcurve" smooth="yes"/>
			<point x="151.0450101186" y="148"/>
			<point x="190.7160916616" y="112.419921875"/>
			<point x="312.1457791616" y="104.419921875" type="qcurve" smooth="yes"/>
			<point x="410.035000353" y="94.419921875"/>
			<point x="613.0227322866" y="175"/>
			<point x="642.5274930288" y="327" type="qcurve" smooth="yes"/>
			<point x="740.6349149038" y="810.6961669922" type="line"/>
			<point x="735.7516141225" y="838.0682373047"/>
			<point x="704.1574368764" y="893.6961669922"/>
			<point x="600.6231961538" y="893.6961669922" type="qcurve" smooth="yes"/>
			<point x="385.0407376577" y="893.6961669922"/>
			<point x="176.7021146108" y="553.5140380859"/>
		</contour>
	</outline>
	<anchor name="bottom" x="324" y="-416"/>
	<anchor name="top" x="603" y="1000"/>
</glyph>
<glyph name="h" format="2">
	<unicode hex="0068"/>
	<advance width="1131"/>
	<outline>
		<contour>
			<point x="-11.940246582" y="-6.3333740234" type="line"/>
			<point x="-34.6069335938" y="73" type="line"/>
			<point x="99.3934326172" y="585" type="line"/>
			<point x="262.4248046875" y="1429.087890625" type="line"/>
			<point x="71.3977050781" y="1406.087890625" type="line"/>
			<point x="88.306640625" y="1476.9965820312" type="line"/>
			<point x="379.8806762695" y="1556.9965820312" type="line"/>
			<point x="443.5490112305" y="1507.3286132812" type="line"/>
			<point x="259.3965454102" y="598" type="line"/>
			<point x="157.0633544922" y="107.0006103516" type="line"/>
			<point x="192.7297973633" y="27.3337402344" type="line"/>
		</contour>
		<contour>
			<point x="644.9701538086" y="-19" type="line"/>
			<point x="581.9701538086" y="63" type="line"/>
			<point x="735.8655395508" y="702.1599731445" type="line" smooth="yes"/>
			<point x="760.7789306641" y="807.7734985352"/>
			<point x="714.2814941406" y="855.4450683594"/>
			<point x="616.1953735352" y="859.4450683594" type="qcurve" smooth="yes"/>
			<point x="541.1486206055" y="866.4450683594"/>
			<point x="288.1184692383" y="746.1069946289"/>
			<point x="210.9096679688" y="639.4689941406" type="qcurve"/>
			<point x="227.8867797852" y="768.3542480469" type="line"/>
			<point x="272.6851806641" y="838.0668945312"/>
			<point x="593.0028686523" y="1021.1906738281"/>
			<point x="690.0250244141" y="1021.1906738281" type="qcurve" smooth="yes"/>
			<point x="786.3091430664" y="1021.1906738281"/>
			<point x="943.5018920898" y="869.3303833008"/>
			<point x="912.7956542969" y="752.1713867188" type="qcurve" smooth="yes"/>
			<point x="752.8822021484" y="118.9995117188" type="line"/>
			<point x="920.5458374023" y="168.9995117188" type="line"/>
			<point x="920.5458374023" y="80" type="line"/>
		</contour>
	</outline>
	<anchor name="bottom" x="420" y="0"/>
	<anchor name="center" x="347" y="1202"/>
	<anchor name="top" x="424" y="1534"/>
</glyph>
<glyph name="k" format="2">
	<unicode hex="006B"/>
	<advance width="980"/>
	<outline>
		<contour>
			<point x="415.513671875" y="493.693359375" type="line"/>
			<point x="87.8486938477" y="155.6685791016" type="line"/>
			<point x="101.7977905273" y="263.8282470703" type="line"/>
			<point x="715.5582275391" y="778.4253540039" type="line"/>
			<point x="750.0881958008" y="836.0164794922"/>
			<point x="707.9276733398" y="914.7282104492"/>
			<point x="715.4091186523" y="914.7282104492" type="qcurve" smooth="yes"/>
			<point x="593.2155151367" y="914.7282104492"/>
			<point x="336.7722167969" y="727.1723022461"/>
			<point x="275.0232543945" y="688.4486083984" type="qcurve"/>
			<point x="270.0004882812" y="681.885559082" type="line"/>
			<point x="167.7303466797" y="106.3339233398" type="line"/>
			<point x="203.3967895508" y="30.3338623047" type="line"/>
			<point x="2.3934326172" y="-6" type="line"/>
			<point x="-23.6065673828" y="74" type="line"/>
			<point x="96.3934326172" y="585" type="line"/>
			<point x="260.606628418" y="1419.3042602539" type="line"/>
			<point x="-30.0296630859" y="1406.3041992188" type="line"/>
			<point x="-13.1207275391" y="1477.212890625" type="line"/>
			<point x="377.8806152344" y="1556.212890625" type="line"/>
			<point x="441.5489501953" y="1505.2115478516" type="line"/>
			<point x="305.3035888672" y="836.7763061523" type="line"/>
			<point x="371.6182861328" y="847.681640625"/>
			<point x="670.0034179688" y="1024.2174682617"/>
			<point x="737.8721923828" y="1024.2174682617" type="qcurve" smooth="yes"/>
			<point x="788.018737793" y="1024.2174682617"/>
			<point x="888.2026977539" y="911.8254394531"/>
			<point x="863.5291137695" y="859.6860961914" type="qcurve" smooth="yes"/>
			<point x="859.1315307617" y="747.7123413086" type="line"/>
			<point x="844.6509399414" y="732.9682006836" type="line"/>
			<point x="412.5106201172" y="497.9660644531" type="line"/>
		</contour>
		<contour>
			<point x="489.8610839844" y="602.580078125" type="line"/>
			<point x="816.1253051758" y="165.6669921875" type="line"/>
			<point x="999.8794555664" y="192.6669921875" type="line"/>
			<point x="999.8794555664" y="110.6674804688" type="line"/>
			<point x="770.0366821289" y="2" type="line" smooth="yes"/>
			<point x="730.2701416016" y="-13.9424438477"/>
			<point x="696.6538085938" y="23.6667480469"/>
			<point x="665.2870483398" y="60" type="qcurve" smooth="yes"/>
			<point x="366.7426147461" y="488.9835205078" type="line"/>
		</contour>
	</outline>
	<anchor name="bottom" x="448" y="0"/>
	<anchor name="top" x="578" y="1534"/>
</glyph>
<glyph name="m" format="2">
	<unicode hex="006D"/>
	<advance width="1705"/>
	<outline>
		<contour>
			<point x="53.998046875" y="-22.3338623047" type="line"/>
			<point x="30.3311767578" y="52.666015625" type="line"/>
			<point x="135.6646728516" y="503" type="line"/>
			<point x="197.6959838867" y="872.4221801758" type="line"/>
			<point x="66.0323486328" y="858.4221801758" type="line"/>
			<point x="67.6687011719" y="952.7852783203" type="line"/>
			<point x="261.9089355469" y="1011.7852783203" type="line"/>
			<point x="332.242980957" y="995.7852783203" type="line"/>
			<point x="348.4354248047" y="719.2298583984" type="line"/>
			<point x="315.0012207031" y="582" type="line"/>
			<point x="210.0012207031" y="87" type="line"/>
			<point x="251.0012207031" y="13" type="line"/>
		</contour>
		<contour>
			<point x="605.565612793" y="-5.3333129883" type="line"/>
			<point x="592.565612793" y="74.6666870117" type="line"/>
			<point x="744.8043823242" y="746.7836303711" type="line" smooth="yes"/>
			<point x="754.0710449219" y="783.2742919922"/>
			<point x="753.8093261719" y="875.9696655273"/>
			<point x="699.5184326172" y="875.9696655273" type="qcurve" smooth="yes"/>
			<point x="624.0170288086" y="875.9696655273"/>
			<point x="343.5211791992" y="713.2231445312"/>
			<point x="236.7309570312" y="609.9468994141" type="qcurve"/>
			<point x="257.7778320312" y="739.0181884766" type="line"/>
			<point x="391.6878662109" y="867.6875610352"/>
			<point x="716.0894165039" y="1027.7850952148"/>
			<point x="828.9545288086" y="1027.7850952148" type="qcurve" smooth="yes"/>
			<point x="890.5251464844" y="1027.7850952148"/>
			<point x="956.3670654297" y="877.4002685547"/>
			<point x="905.6217651367" y="711.4517822266" type="qcurve" smooth="yes"/>
			<point x="770.5689086914" y="122.0010986328" type="line"/>
			<point x="816.9026489258" y="33.0006103516" type="line"/>
		</contour>
		<contour>
			<point x="1257.9998168945" y="-21.6669311523" type="line"/>
			<point x="1169.3323974609" y="115.6680908203" type="line"/>
			<point x="1311.7183227539" y="736.9703369141" type="line" smooth="yes"/>
			<point x="1317.2966918945" y="752.1668701172"/>
			<point x="1311.1290893555" y="865.0394897461"/>
			<point x="1253.9529418945" y="871.0394897461" type="qcurve" smooth="yes"/>
			<point x="1179.1431884766" y="878.0394897461"/>
			<point x="898.6252441406" y="696.2229003906"/>
			<point x="800.3098754883" y="595.2331542969" type="qcurve"/>
			<point x="812.9534912109" y="722.7850952148" type="line"/>
			<point x="921.3095703125" y="821.4774780273"/>
			<point x="1247.3701782227" y="1027.7850952148"/>
			<point x="1362.9192504883" y="1027.7850952148" type="qcurve" smooth="yes"/>
			<point x="1442.2819213867" y="1027.7850952148"/>
			<point x="1516.2474975586" y="849.237121582"/>
			<point x="1473.7216186523" y="710.7850952148" type="qcurve" smooth="yes"/>
			<point x="1329.9108276367" y="124.9995117188" type="line"/>
			<point x="1497.5744628906" y="168.9995117188" type="line"/>
			<point x="1497.5744628906" y="80" type="line"/>
		</contour>
	</outline>
	<anchor name="bottom" x="958" y="0"/>
	<anchor name="top" x="958" y="1000"/>
	<anchor name="cy_descender" x="1572" y="134"/>
</glyph>
<glyph name="n" format="2">
	<unicode hex="006E"/>
	<advance width="1124"/>
	<outline>
		<contour>
			<point x="54.9583740234" y="-5" type="line"/>
			<point x="37.9583740234" y="56.0788574219" type="line"/>
			<point x="129.9978027344" y="503" type="line"/>
			<point x="197.6959838867" y="871.8275756836" type="line"/>
			<point x="66.0323486328" y="857.8275756836" type="line"/>
			<point x="67.6687011719" y="952.1906738281" type="line"/>
			<point x="249.2418823242" y="1001.2301025391" type="line"/>
			<point x="325.5761108398" y="987.2301025391" type="line"/>
			<point x="337.2445068359" y="723.1906738281" type="line"/>
			<point x="324.2445068359" y="670.1906738281" type="line"/>
			<point x="210.9615478516" y="55.6380004883" type="line"/>
			<point x="217.1192626953" y="8.5197143555" type="line"/>
		</contour>
		<contour>
			<point x="702.5924682617" y="-9.143371582" type="line"/>
			<point x="674.434753418" y="63" type="line"/>
			<point x="809.0828857422" y="693.9688720703" type="line" smooth="yes"/>
			<point x="828.2979125977" y="784.5056152344"/>
			<point x="798.1082763672" y="866.4130859375"/>
			<point x="722.6675415039" y="867.4130859375" type="qcurve" smooth="yes"/>
			<point x="628.8031616211" y="868.4130859375"/>
			<point x="304.2681274414" y="702.9463500977"/>
			<point x="256.0595092773" y="582.6405029297" type="qcurve"/>
			<point x="264.7979736328" y="694.750793457" type="line"/>
			<point x="295.9808959961" y="810.4466552734"/>
			<point x="680.7639160156" y="1027.1904907227"/>
			<point x="812.4745483398" y="1027.1904907227" type="qcurve" smooth="yes"/>
			<point x="920.6150512695" y="1027.1904907227"/>
			<point x="1024.1359863281" y="879.1147460938"/>
			<point x="1002.0357055664" y="815.0291748047" type="qcurve" smooth="yes"/>
			<point x="836.0529174805" y="118.9995117188" type="line"/>
			<point x="1003.7164916992" y="168.9995117188" type="line"/>
			<point x="1003.7164916992" y="80" type="line"/>
		</contour>
	</outline>
	<anchor name="bottom" x="522" y="0"/>
	<anchor name="top" x="602" y="1000"/>
	<anchor name="liga" x="1173" y="0"/>
</glyph>
<glyph name="o" format="2">
	<unicode hex="006F"/>
	<advance width="1065"/>
	<outline>
		<contour>
			<point x="17.914457898" y="567.0007324219" type="qcurve" smooth="yes"/>
			<point x="71.0403245972" y="817.7476806641"/>
			<point x="403.3859666871" y="1056.8584594727"/>
			<point x="602.8976244019" y="1041.8584594727" type="qcurve" smooth="yes"/>
			<point x="818.2494310425" y="1025.4353027344"/>
			<point x="978.8875536011" y="689.8388671875"/>
			<point x="940.2664476441" y="478.0007324219" type="qcurve" smooth="yes"/>
			<point x="897.5821947144" y="241.6591796875"/>
			<point x="563.4697069214" y="-46.8569946289"/>
			<point x="365.0304369019" y="-25.8569946289" type="qcurve" smooth="yes"/>
			<point x="161.7407640503" y="-5.4338378906"/>
			<point x="-34.10310802" y="333.1625976562"/>
		</contour>
		<contour>
			<point x="208.6954637573" y="591.8895874023" type="qcurve" smooth="yes"/>
			<point x="159.8924476182" y="393.8338058275"/>
			<point x="237.8042894409" y="82.1082763672"/>
			<point x="381.5776048706" y="62.03125" type="qcurve" smooth="yes"/>
			<point x="554.1973558472" y="42.03125"/>
			<point x="740.5706234525" y="367.193127264"/>
			<point x="760.7075487183" y="490.0610351562" type="qcurve" smooth="yes"/>
			<point x="786.6865379111" y="628.7223809817"/>
			<point x="753.7046190308" y="932.3035888672"/>
			<point x="582.3159471558" y="948.3035888672" type="qcurve" smooth="yes"/>
			<point x="441.9269090698" y="963.3035888672"/>
			<point x="238.4934695725" y="722.5618821576"/>
		</contour>
	</outline>
	<anchor name="bottom" x="358" y="0"/>
	<anchor name="center" x="461" y="500"/>
	<anchor name="ogonek" x="514" y="0"/>
	<anchor name="top" x="584" y="1000"/>
	<anchor name="topright" x="663" y="1000"/>
	<anchor name="GRKtop" x="584" y="1000"/>
	<anchor name="yu_dash" x="83" y="498"/>
</glyph>
<glyph name="p" format="2">
	<unicode hex="0070"/>
	<advance width="1065"/>
	<outline>
		<contour>
			<point x="-88.9368896484" y="-354.7283325195" type="line"/>
			<point x="118.9290771484" y="511" type="line"/>
			<point x="154.7038574219" y="724.1624755859" type="line"/>
			<point x="107.3703613281" y="950.828918457" type="line"/>
			<point x="210.3725585938" y="1007.1633300781" type="line"/>
			<point x="263.0401000977" y="1007.1633300781" type="line"/>
			<point x="309.6077270508" y="758.6489868164" type="line"/>
			<point x="373.2857666016" y="847.6489868164"/>
			<point x="647.6522827148" y="1007.1633300781"/>
			<point x="777.3111572266" y="1007.1633300781" type="qcurve" smooth="yes"/>
			<point x="864.7355957031" y="1007.1633300781"/>
			<point x="995.2460327148" y="833.2982177734"/>
			<point x="993.5889282227" y="699.4334716797" type="qcurve" smooth="yes"/>
			<point x="991.9318237305" y="422.4870605469"/>
			<point x="705.1179199219" y="4"/>
			<point x="421.1046142578" y="4" type="qcurve" smooth="yes"/>
			<point x="343.3327636719" y="4"/>
			<point x="182.3320922852" y="53"/>
			<point x="167.9318237305" y="66" type="qcurve"/>
			<point x="81.2052001953" y="-303.3965454102" type="line"/>
			<point x="257.4141235352" y="-322.4874267578" type="line"/>
			<point x="236.5051879883" y="-396.3961181641" type="line"/>
			<point x="-21.7352905273" y="-423.729675293" type="line"/>
		</contour>
		<contour>
			<point x="190.8723754883" y="185.2208251953" type="line"/>
			<point x="216.7009277344" y="169.8154296875"/>
			<point x="385.5250244141" y="129.8154296875"/>
			<point x="437.0974121094" y="129.8154296875" type="qcurve" smooth="yes"/>
			<point x="626.6437988281" y="129.8154296875"/>
			<point x="800.9285888672" y="443.4331054688"/>
			<point x="802.5856933594" y="681.4334716797" type="qcurve" smooth="yes"/>
			<point x="804.2427978516" y="825.4064941406"/>
			<point x="717.352722168" y="889.1154785156"/>
			<point x="640.3226928711" y="887.1154785156" type="qcurve" smooth="yes"/>
			<point x="552.9750366211" y="885.1154785156"/>
			<point x="335.1750488281" y="725.2316894531"/>
			<point x="286.4446411133" y="632.2316894531" type="qcurve"/>
			<point x="265.9318237305" y="520" type="line"/>
		</contour>
	</outline>
	<anchor name="bottom" x="599" y="0"/>
	<anchor name="top" x="599" y="1000"/>
</glyph>
<glyph name="q" format="2">
	<unicode hex="0071"/>
	<advance width="1020"/>
	<outline>
		<contour>
			<point x="-17.8280029297" y="279" type="qcurve" smooth="yes"/>
			<point x="-15.8280029297" y="578.2708740234"/>
			<point x="352.7567138672" y="1021.2985839844"/>
			<point x="579.3434448242" y="1021.2985839844" type="qcurve" smooth="yes"/>
			<point x="672.7156982422" y="1021.2985839844"/>
			<point x="764.0032348633" y="977.2985839844"/>
			<point x="786.8891601562" y="960.2985839844" type="qcurve"/>
			<point x="824.0707397461" y="984.2985839844" type="line"/>
			<point x="858.0712890625" y="984.2985839844" type="line"/>
			<point x="915.0725708008" y="839.6290893555" type="line"/>
			<point x="815.5413818359" y="353" type="line"/>
			<point x="662.4694824219" y="-290.2147216797" type="line"/>
			<point x="811.2238769531" y="-324.4874267578" type="line"/>
			<point x="788.3149414062" y="-396.3961181641" type="line"/>
			<point x="563.7412109375" y="-413.0632324219" type="line"/>
			<point x="491.8062133789" y="-346.7285766602" type="line"/>
			<point x="646.871887207" y="273" type="line"/>
			<point x="643.871887207" y="275" type="line"/>
			<point x="578.0032348633" y="133"/>
			<point x="343.9987182617" y="-9"/>
			<point x="249.4341430664" y="-9" type="qcurve" smooth="yes"/>
			<point x="130.6602783203" y="-9"/>
			<point x="-18.8280029297" y="124"/>
		</contour>
		<contour>
			<point x="158.8418579102" y="271" type="qcurve" smooth="yes"/>
			<point x="157.8418579102" y="183.6284179688"/>
			<point x="234.2451171875" y="97.7221679688"/>
			<point x="356.9592895508" y="97.7221679688" type="qcurve" smooth="yes"/>
			<point x="427.7905273438" y="97.7221679688"/>
			<point x="638.7191772461" y="253.6982421875"/>
			<point x="665.5383911133" y="409" type="qcurve" smooth="yes"/>
			<point x="759.868347168" y="838.7390136719" type="line"/>
			<point x="733.6968994141" y="853.7390136719"/>
			<point x="639.2952880859" y="899.7390136719"/>
			<point x="576.3793334961" y="899.7390136719" type="qcurve" smooth="yes"/>
			<point x="432.4706420898" y="899.7390136719"/>
			<point x="160.8418579102" y="514.1307373047"/>
		</contour>
	</outline>
	<anchor name="bottom" x="594" y="0"/>
	<anchor name="top" x="594" y="1000"/>
</glyph>
<glyph name="r" format="2">
	<unicode hex="0072"/>
	<advance width="827"/>
	<outline>
		<contour>
			<point x="78.3234863281" y="-3" type="line"/>
			<point x="26.3234863281" y="36" type="line"/>
			<point x="155.9905395508" y="546" type="line"/>
			<point x="203.0216674805" y="873.6040039062" type="line"/>
			<point x="72.3580322266" y="858.4221801758" type="line"/>
			<point x="73.9943847656" y="952.7852783203" type="line"/>
			<point x="303.5690917969" y="1008.7852783203" type="line"/>
			<point x="352.5690917969" y="994.7852783203" type="line"/>
			<point x="322.4689331055" y="771.4371337891" type="line"/>
			<point x="337.2370605469" y="670.7852783203" type="line"/>
			<point x="225.9025268555" y="134.7268066406" type="line"/>
			<point x="354.5661621094" y="152.9995117188" type="line"/>
			<point x="354.5661621094" y="68" type="line"/>
		</contour>
		<contour>
			<point x="769.8618774414" y="793.7852783203" type="line"/>
			<point x="789.004699707" y="874.7836303711" type="line"/>
			<point x="656.5629882812" y="893.7836303711"/>
			<point x="391.8795776367" y="778.5762939453"/>
			<point x="208.0824584961" y="562.479675293" type="qcurve"/>
			<point x="240.517578125" y="701.440612793" type="line"/>
			<point x="280.5211791992" y="717.8540649414"/>
			<point x="653.1898803711" y="1027.7850952148"/>
			<point x="800.430847168" y="1027.7850952148" type="qcurve" smooth="yes"/>
			<point x="835.2559814453" y="1027.7850952148"/>
			<point x="902.6723022461" y="959.78515625"/>
			<point x="902.6723022461" y="898.7850952148" type="qcurve" smooth="yes"/>
			<point x="902.6723022461" y="848.7850952148"/>
			<point x="834.8622436523" y="793.7852783203"/>
			<point x="788.8618774414" y="793.7852783203" type="qcurve" smooth="yes"/>
		</contour>
	</outline>
	<anchor name="bottom" x="282" y="0"/>
	<anchor name="top" x="486" y="1000"/>
</glyph>
<glyph name="s" format="2">
	<unicode hex="0073"/>
	<advance width="878"/>
	<outline>
		<contour>
			<point x="-10.2103881836" y="150" type="qcurve" smooth="yes"/>
			<point x="-9.2103881836" y="197"/>
			<point x="97.4580078125" y="242"/>
			<point x="160.7924804688" y="242" type="qcurve" smooth="yes"/>
			<point x="193.1262207031" y="242" type="line"/>
			<point x="193.1262207031" y="136" type="line" smooth="yes"/>
			<point x="193.1262207031" y="127.58203125"/>
			<point x="272.3479614258" y="93.9946899414"/>
			<point x="403.3550415039" y="93.9946899414" type="qcurve" smooth="yes"/>
			<point x="484.3298950195" y="93.9946899414"/>
			<point x="664.0347290039" y="212.4967041016"/>
			<point x="664.0347290039" y="260.0061035156" type="qcurve" smooth="yes"/>
			<point x="664.0347290039" y="351.2580566406"/>
			<point x="538.5982666016" y="435.6806030273"/>
			<point x="387.5697021484" y="483.5526123047" type="qcurve" smooth="yes"/>
			<point x="242.6020507812" y="539.3923950195"/>
			<point x="121.1760253906" y="648.4060668945"/>
			<point x="121.8427124023" y="755.0457763672" type="qcurve" smooth="yes"/>
			<point x="122.5093994141" y="871.0368041992"/>
			<point x="367.8873901367" y="1043.3333740234"/>
			<point x="520.3420410156" y="1043.3333740234" type="qcurve" smooth="yes"/>
			<point x="675.1602783203" y="1043.3333740234"/>
			<point x="841.5408325195" y="934.1906738281"/>
			<point x="841.5408325195" y="868.1906738281" type="qcurve" smooth="yes"/>
			<point x="841.5408325195" y="829.1906738281"/>
			<point x="788.5399780273" y="797.1906738281"/>
			<point x="726.5390014648" y="797.1906738281" type="qcurve" smooth="yes"/>
			<point x="678.2052001953" y="797.1906738281" type="line"/>
			<point x="658.8712768555" y="907.1911010742" type="line" smooth="yes"/>
			<point x="658.8712768555" y="880.9694213867"/>
			<point x="582.861328125" y="934.4949951172"/>
			<point x="492.5889892578" y="934.4949951172" type="qcurve" smooth="yes"/>
			<point x="396.3106079102" y="934.4949951172"/>
			<point x="268.2771606445" y="817.3706054688"/>
			<point x="268.2771606445" y="757.0964355469" type="qcurve" smooth="yes"/>
			<point x="268.2771606445" y="700.8905639648"/>
			<point x="377.7994995117" y="652.5878295898"/>
			<point x="488.6916503906" y="624.5405883789" type="qcurve" smooth="yes"/>
			<point x="625.0770263672" y="578.5270996094"/>
			<point x="811.5410766602" y="442.6904907227"/>
			<point x="811.5410766602" y="293.8111572266" type="qcurve"/>
			<point x="811.8142089844" y="155.3922119141"/>
			<point x="545.8951416016" y="-19.2855834961"/>
			<point x="339.8239135742" y="-19.2855834961" type="qcurve" smooth="yes"/>
			<point x="189.1400146484" y="-19.2855834961"/>
			<point x="-12.2103881836" y="65"/>
		</contour>
	</outline>
	<anchor name="bottom" x="282" y="0"/>
	<anchor name="top" x="446" y="1000"/>
</glyph>
<glyph name="t" format="2">
	<unicode hex="0074"/>
	<advance width="520"/>
	<outline>
		<contour>
			<point x="112.7321777344" y="-13" type="line"/>
			<point x="13.7305297852" y="35" type="line"/>
			<point x="107.7305297852" y="510" type="line"/>
			<point x="184.9883422852" y="915.5239868164" type="line"/>
			<point x="-3.3342285156" y="913.8574829102" type="line"/>
			<point x="7.9990234375" y="977.7459716797" type="line"/>
			<point x="42.1195678711" y="977.0787353516"/>
			<point x="257.1830444336" y="1233.7025146484"/>
			<point x="284.3459472656" y="1304.1906738281" type="qcurve"/>
			<point x="380.3094482422" y="1304.1906738281" type="line"/>
			<point x="405.3099365234" y="1268.5233764648" type="line"/>
			<point x="257.7333984375" y="500" type="line"/>
			<point x="208.0370483398" y="128.635925293" type="line"/>
			<point x="450.6873779297" y="164.635925293" type="line"/>
			<point x="450.6873779297" y="89" type="line"/>
		</contour>
		<contour>
			<point x="264.0864257812" y="924.4129638672" type="line"/>
			<point x="290.9750976562" y="1001.5236206055" type="line"/>
			<point x="580.2097167969" y="1030.8567504883" type="line"/>
			<point x="578.6541748047" y="935.4129638672" type="line"/>
		</contour>
	</outline>
	<anchor name="bottom" x="149" y="0"/>
	<anchor name="center" x="262" y="622"/>
	<anchor name="top" x="322" y="1179"/>
	<anchor name="topright" x="600" y="920"/>
</glyph>
<glyph name="v" format="2">
	<unicode hex="0076"/>
	<advance width="866"/>
	<outline>
		<contour>
			<point x="204.4771728516" y="12.7143554688" type="line"/>
			<point x="177.9527587891" y="509.2193603516" type="line"/>
			<point x="165.4724121094" y="859.2211303711" type="line"/>
			<point x="28.2940673828" y="864.4938354492" type="line"/>
			<point x="27.9304199219" y="958.8569335938" type="line"/>
			<point x="257.6400146484" y="1009.1906738281" type="line"/>
			<point x="326.6412353516" y="999.1906738281" type="line"/>
			<point x="328.883605957" y="562.8748779297" type="line"/>
			<point x="346.8490600586" y="249.1003417969" type="line"/>
			<point x="344.0470581055" y="186.7219848633" type="line"/>
			<point x="353.5468139648" y="186.7219848633" type="line"/>
			<point x="409.3804931641" y="280.3213500977" type="line"/>
			<point x="616.7183837891" y="539.6971435547"/>
			<point x="724.0463256836" y="657.1281738281"/>
			<point x="730.0463256836" y="725.6768188477" type="qcurve" smooth="yes"/>
			<point x="731.0463256836" y="810.7266845703"/>
			<point x="642.8233032227" y="945.5969238281"/>
			<point x="610.8233032227" y="973.3633422852" type="qcurve" smooth="yes"/>
			<point x="632.8233032227" y="996.1641845703"/>
			<point x="707.8129882812" y="1047.5995483398"/>
			<point x="753.6411743164" y="1047.5995483398" type="qcurve" smooth="yes"/>
			<point x="805.4194946289" y="1047.5995483398"/>
			<point x="888.9639282227" y="950.0855102539"/>
			<point x="874.9639282227" y="831.3941650391" type="qcurve" smooth="yes"/>
			<point x="855.9639282227" y="755.8343505859"/>
			<point x="491.9398803711" y="307.8060913086"/>
			<point x="309.201171875" y="-10.2856445312" type="qcurve"/>
		</contour>
	</outline>
	<anchor name="bottom" x="513" y="0"/>
	<anchor name="top" x="513" y="1000"/>
</glyph>
<glyph name="w" format="2">
	<unicode hex="0077"/>
	<advance width="1378"/>
	<outline>
		<contour>
			<point x="222.5530395508" y="13" type="line"/>
			<point x="175.6322631836" y="583.4058837891" type="line"/>
			<point x="167.2821044922" y="875.8275756836" type="line"/>
			<point x="39.2550048828" y="877.8275756836" type="line"/>
			<point x="40.8913574219" y="972.1906738281" type="line"/>
			<point x="251.8325195312" y="1009.1906738281" type="line"/>
			<point x="341.9464111328" y="999.1906738281" type="line"/>
			<point x="327.4068603516" y="636.1401367188" type="line"/>
			<point x="344.6079711914" y="229.2286376953" type="line"/>
			<point x="332.7396850586" y="140.2675170898" type="line"/>
			<point x="333.7396850586" y="140.2675170898" type="line"/>
			<point x="392.6458129883" y="247.412902832" type="line"/>
			<point x="472.6184692383" y="376.1246948242"/>
			<point x="675.6008300781" y="677.9880371094"/>
			<point x="680.0819091797" y="799.2250976562" type="qcurve"/>
			<point x="677.2525024414" y="874.1594238281" type="line"/>
			<point x="569.1614379883" y="875.4220581055" type="line"/>
			<point x="570.4072265625" y="971.3406982422" type="line"/>
			<point x="754.1985473633" y="1008.3406982422" type="line"/>
			<point x="845.1459350586" y="1002.3406982422" type="line"/>
			<point x="855.2727661133" y="593.2403564453" type="line"/>
			<point x="883.8633422852" y="232.3217773438" type="line"/>
			<point x="881.294921875" y="142.3606567383" type="line"/>
			<point x="882.294921875" y="142.3606567383" type="line"/>
			<point x="991.8016357422" y="254.4818725586" type="line"/>
			<point x="1229.7438354492" y="494.3498535156"/>
			<point x="1319.2819824219" y="816.0549316406"/>
			<point x="1305.9482421875" y="901.0823974609" type="qcurve" smooth="yes"/>
			<point x="1292.6145019531" y="949.2446289062"/>
			<point x="1178.9451904297" y="937.5225830078"/>
			<point x="1133.6118164062" y="934.8557128906" type="qcurve" smooth="yes"/>
			<point x="1151.2784423828" y="965.5228881836"/>
			<point x="1250.6129150391" y="1025.1906738281"/>
			<point x="1314.9471435547" y="1025.1906738281" type="qcurve" smooth="yes"/>
			<point x="1388.2815551758" y="938.8157958984"/>
			<point x="1476.6168212891" y="963.1900634766"/>
			<point x="1465.6168212891" y="894.5227050781" type="qcurve" smooth="yes"/>
			<point x="1446.6168212891" y="841.7309570312"/>
			<point x="1269.4566040039" y="326.4049072266"/>
			<point x="878.5651245117" y="-9" type="qcurve"/>
			<point x="745.4584350586" y="13" type="line"/>
			<point x="698.3011474609" y="557.7783813477" type="line"/>
			<point x="708.9597167969" y="624.7183227539" type="line"/>
			<point x="707.9597167969" y="624.7183227539" type="line"/>
			<point x="709.3215332031" y="529.9495849609" type="line"/>
			<point x="692.176940918" y="414.4848632812"/>
			<point x="488.176574707" y="135.4647216797"/>
			<point x="362.0319824219" y="-5" type="qcurve"/>
		</contour>
	</outline>
	<anchor name="bottom" x="787" y="0"/>
	<anchor name="top" x="717" y="1000"/>
</glyph>
<glyph name="x" format="2">
	<unicode hex="0078"/>
	<advance width="863"/>
	<outline>
		<contour>
			<point x="164.0205688477" y="-3.4284667969" type="qcurve"/>
			<point x="17.1189575195" y="33.5715332031" type="line"/>
			<point x="30.7552490234" y="124.2982788086" type="line"/>
			<point x="132.1110229492" y="121.2982788086" type="line" smooth="yes"/>
			<point x="211.7172241211" y="117.1625976562"/>
			<point x="256.1197509766" y="171.8355102539"/>
			<point x="273.4802856445" y="187.2951049805" type="qcurve" smooth="yes"/>
			<point x="323.9028320312" y="231.0561523438"/>
			<point x="407.4682006836" y="395.2221069336"/>
			<point x="461.0742797852" y="497.2609863281" type="qcurve"/>
			<point x="340.4947509766" y="879.1002807617" type="line"/>
			<point x="153.8314208984" y="877.8275756836" type="line"/>
			<point x="157.4677734375" y="972.1906738281" type="line"/>
			<point x="385.3759155273" y="1007.1906738281" type="line"/>
			<point x="481.7105712891" y="987.1906738281" type="line"/>
			<point x="525.311340332" y="801.3383789062" type="line"/>
			<point x="534.7149658203" y="711.0762329102" type="line"/>
			<point x="535.7149658203" y="711.0762329102" type="line"/>
			<point x="569.7660522461" y="797.4089355469" type="line" smooth="yes"/>
			<point x="607.6611938477" y="861.5646362305"/>
			<point x="581.1340942383" y="879.7378540039"/>
			<point x="613.1842651367" y="917.6098632812" type="qcurve" smooth="yes"/>
			<point x="654.2846679688" y="965.6263427734"/>
			<point x="809.5366210938" y="1032.7620849609"/>
			<point x="867.6024169922" y="1032.7620849609" type="qcurve" smooth="yes"/>
			<point x="918.5754394531" y="1032.7620849609"/>
			<point x="953.9833984375" y="970.7620849609"/>
			<point x="949.9833984375" y="932.7620849609" type="qcurve" smooth="yes"/>
			<point x="945.9833984375" y="895.7620849609"/>
			<point x="892.6833496094" y="838.7620849609"/>
			<point x="856.6833496094" y="828.7620849609" type="qcurve"/>
			<point x="834.6833496094" y="839.7620849609" type="line"/>
			<point x="836.2778320312" y="869.8287353516" type="line" smooth="yes"/>
			<point x="837.3167724609" y="874.0958251953"/>
			<point x="821.1729125977" y="908.0958862305"/>
			<point x="797.1128540039" y="908.0958862305" type="qcurve" smooth="yes"/>
			<point x="773.8157348633" y="908.0958862305"/>
			<point x="689.100769043" y="837.8218383789"/>
			<point x="650.8504638672" y="785.6555175781" type="qcurve" smooth="yes"/>
			<point x="607.2335205078" y="731.7503051758"/>
			<point x="620.2305297852" y="685.2970581055"/>
			<point x="573.0517578125" y="586.4410400391" type="qcurve"/>
			<point x="726.9625244141" y="113.8567504883" type="line"/>
			<point x="924.3531494141" y="143.8567504883" type="line"/>
			<point x="924.3531494141" y="58.8572387695" type="line"/>
			<point x="650.0617675781" y="-13.7930297852" type="line"/>
			<point x="575.7272949219" y="18.2069702148" type="line"/>
			<point x="499.8374633789" y="282.3696289062" type="line"/>
			<point x="485.6890258789" y="370.7758789062" type="line"/>
			<point x="484.6890258789" y="370.7758789062" type="line"/>
			<point x="441.7879638672" y="277.7377319336" type="line"/>
			<point x="427.387878418" y="257.549621582"/>
			<point x="417.5127563477" y="181.0785522461"/>
			<point x="399.7958374023" y="158.5008544922" type="qcurve" smooth="yes"/>
			<point x="338.401184082" y="82.1512451172"/>
			<point x="248.0203857422" y="-19.7616577148"/>
		</contour>
	</outline>
	<anchor name="bottom" x="522" y="0"/>
	<anchor name="top" x="522" y="1000"/>
	<anchor name="cy_descender" x="832" y="134"/>
	<anchor name="center" x="432" y="502"/>
</glyph>
<glyph name="y" format="2">
	<unicode hex="0079"/>
	<advance width="808"/>
	<outline>
		<contour>
			<point x="-322.045715332" y="-391.1961669922" type="line"/>
			<point x="-322.045715332" y="-370.1961669922" type="line"/>
			<point x="-224.0934448242" y="-364.1961669922" type="line" smooth="yes"/>
			<point x="-111.8421020508" y="-359.1961669922"/>
			<point x="110.4698486328" y="-202.6275634766"/>
			<point x="148.2267456055" y="-130.5002441406" type="qcurve" smooth="yes"/>
			<point x="253.0163574219" y="-13" type="line"/>
			<point x="212.9036865234" y="-13" type="line"/>
			<point x="186.6677246094" y="188.2427978516"/>
			<point x="95.3863525391" y="772.8275756836"/>
			<point x="76.7869262695" y="875.8275756836" type="qcurve"/>
			<point x="-47.9674072266" y="877.8275756836" type="line"/>
			<point x="-46.3310546875" y="972.1906738281" type="line"/>
			<point x="172.5774536133" y="1009.1906738281" type="line"/>
			<point x="230.245300293" y="1009.1906738281" type="line"/>
			<point x="241.245300293" y="999.1906738281" type="line"/>
			<point x="358.1126708984" y="172.0883178711" type="line"/>
			<point x="354.5737915039" y="124.3883056641" type="line"/>
			<point x="355.5737915039" y="124.3883056641" type="line"/>
			<point x="378.930480957" y="186.5264282227" type="line" smooth="yes"/>
			<point x="672.7040405273" y="557.2082519531"/>
			<point x="681.3775634766" y="753.1278076172"/>
			<point x="681.3775634766" y="879.9393310547" type="qcurve" smooth="yes"/>
			<point x="681.3775634766" y="918.9393310547"/>
			<point x="658.8204345703" y="960.9393310547"/>
			<point x="619.8204345703" y="981.9393310547" type="qcurve" smooth="yes"/>
			<point x="636.8204345703" y="997.9393310547"/>
			<point x="702.487487793" y="1022.9393310547"/>
			<point x="748.4876708984" y="1022.9393310547" type="qcurve" smooth="yes"/>
			<point x="798.8214111328" y="1022.9393310547"/>
			<point x="875.7113647461" y="988.9393310547"/>
			<point x="867.7113647461" y="955.9393310547" type="qcurve" smooth="yes"/>
			<point x="838.7113647461" y="897.5876464844"/>
			<point x="680.1923828125" y="415.2807617188"/>
			<point x="290.1401977539" y="-31.8830566406" type="qcurve" smooth="yes"/>
			<point x="214.3561401367" y="-118.3331298828" type="line" smooth="yes"/>
			<point x="26.9377441406" y="-345.2150268555"/>
			<point x="-160.840637207" y="-412.1961669922"/>
			<point x="-303.1406860352" y="-416.1961669922" type="qcurve"/>
		</contour>
	</outline>
	<anchor name="bottom" x="782" y="0"/>
	<anchor name="top" x="504" y="1000"/>
</glyph>
<glyph name="z" format="2">
	<unicode hex="007A"/>
	<advance width="480"/>
	<outline>
		<contour>
			<point x="-306.8342895508" y="-14.9999389648" type="line"/>
			<point x="-305.0021972656" y="51.9995727539" type="line"/>
			<point x="-222.6431884766" y="123.8884277344"/>
			<point x="103.5114746094" y="512.8623046875"/>
			<point x="137.4450683594" y="579.4299316406" type="qcurve" smooth="yes"/>
			<point x="192.4553222656" y="653.4299316406"/>
			<point x="379.1244506836" y="801.9986572266"/>
			<point x="430.3867797852" y="860.1879272461" type="qcurve"/>
			<point x="49.1354980469" y="863.5211791992" type="line"/>
			<point x="-39.8641357422" y="821.1876220703" type="line"/>
			<point x="-143.4796142578" y="831.1876220703" type="line"/>
			<point x="-67.8122558594" y="989.1906738281" type="line"/>
			<point x="-45.8122558594" y="997.1906738281" type="line"/>
			<point x="582.2746582031" y="986.1906738281" type="line"/>
			<point x="590.9412841797" y="939.0798339844" type="line"/>
			<point x="533.29296875" y="851.0798339844"/>
			<point x="310.1134033203" y="575.08203125"/>
			<point x="271.0921630859" y="506.4874267578" type="qcurve" smooth="yes"/>
			<point x="226.1033935547" y="435.9197998047"/>
			<point x="-10.5735473633" y="212.4588623047"/>
			<point x="-67.3257446289" y="173.0144042969" type="qcurve"/>
			<point x="344.0828857422" y="135.9241943359" type="line"/>
			<point x="444.7485961914" y="226.5911865234" type="line"/>
			<point x="533.5983886719" y="202.846862793" type="line"/>
			<point x="423.7807617188" y="-6" type="line"/>
			<point x="388.7807617188" y="-18" type="line"/>
			<point x="-113.8344726562" y="67.7778320312" type="line"/>
		</contour>
	</outline>
	<anchor name="bottom" x="443" y="0"/>
	<anchor name="top" x="463" y="1000"/>
	<anchor name="_liga" x="0" y="0"/>
</glyph>
